<?xml version="1.0" encoding="UTF-8"?>
<svg width="120px" height="38px" viewBox="0 0 120 38" version="1.1" xmlns="http://www.w3.org/2000/svg" xmlns:xlink="http://www.w3.org/1999/xlink">
    <!-- Generator: Sketch 58 (84663) - https://sketch.com -->
    <title>logos/roadtripr</title>
    <desc>Created with Sketch.</desc>
    <defs>
        <path d="M94.2979794,37.2157938 L94.2715361,37.3110515 L94.2534433,37.4025979 L94.2299381,37.6079588 C94.2101443,37.5980619 94.1878763,37.5869278 94.1668454,37.578268 C94.1458144,37.5658969 94.1210722,37.5535258 94.0988041,37.5411546 C94.1099381,37.458268 94.1247835,37.3729072 94.1334433,37.2900206 C94.1346804,37.2764124 94.1322062,37.2628041 94.1322062,37.2491959 C94.1866392,37.2380619 94.2423093,37.2269278 94.2979794,37.2157938 Z M93.3539691,37.3401237 L93.42,37.4681649 L93.2901031,37.3939381 L93.3539691,37.3401237 Z M93.2877526,36.6098557 C93.478268,36.7954227 93.6749691,36.9809897 93.8741443,37.1677938 C93.8494021,37.2321237 93.8246598,37.2976907 93.7999175,37.3595464 C93.7974433,37.3570722 93.793732,37.3558351 93.7912577,37.3533608 C93.6230103,37.1950103 93.4856907,37.0156289 93.3372371,36.8449072 L93.3129588,36.8203196 L93.2877526,36.7966598 L93.2877526,36.6098557 Z M94.2012216,36.8548041 L94.270268,36.8665567 C94.3296495,36.9284124 94.3383093,37.0051134 94.3284124,37.0842887 C94.2467629,37.0607835 94.1675876,37.0360412 94.0859381,37.0125361 C94.0748041,36.9729485 94.062433,36.9333608 94.0488247,36.8937732 C94.0729485,36.8739794 94.1038763,36.8609897 94.1409897,36.8560412 L94.2012216,36.8548041 Z M96.2934433,36.6352165 C96.3181856,36.6525361 96.3429278,36.6686186 96.3676701,36.6859381 C96.388701,36.7849072 96.4122062,36.891299 96.4332371,36.9952165 C96.3676701,36.9222268 96.3033402,36.848 96.2414845,36.7725361 C96.2588041,36.7267629 96.2761237,36.6809897 96.2934433,36.6352165 Z M96.6209072,36.6822268 C96.6369897,36.7020206 96.6518351,36.7193402 96.6679175,36.7354227 L96.6173505,36.8118144 L96.5683711,36.8876186 L96.59957,36.7890575 L96.6209072,36.6822268 Z M93.2837938,35.8074639 L93.5398763,35.9534433 C93.5547216,36.1513814 93.5683299,36.3592165 93.5819381,36.5707629 C93.5522474,36.5806598 93.5213196,36.5893196 93.4916289,36.6004536 C93.4446186,36.5002474 93.4124536,36.3938557 93.3691546,36.2924124 C93.3778144,36.255299 93.3877113,36.2157113 93.3976082,36.1785979 C93.3790515,36.1959175 93.3580206,36.2107629 93.3369897,36.2280825 L93.3124021,36.1812268 L93.2850309,36.135299 L93.2837938,35.8074639 Z M96.1597113,36.3705979 C96.1374433,36.4398763 96.1164124,36.5079175 96.0941443,36.5759588 C96.0570309,36.5190515 96.0199175,36.4621443 95.9889897,36.4027629 L96.0128814,36.398607 L96.0502268,36.3917835 L96.1597113,36.3705979 Z M96.8661031,35.8293608 L96.984866,35.8986392 C96.9823918,36.1411134 96.9131134,36.3254433 96.8228041,36.4887423 C96.7790928,36.4978144 96.7375808,36.5129347 96.6975349,36.53337 L96.6384742,36.5679175 L96.6607423,36.3724536 L96.679299,36.3613196 L96.6644536,36.3464742 C96.6891959,36.1534845 96.7312577,35.9654433 96.8661031,35.8293608 Z M93.7364536,36.0644124 L94.2288247,36.3452371 C94.2152165,36.4046186 94.2016082,36.4615258 94.1867629,36.5196701 C94.0073814,36.4825567 93.8539794,36.4553402 93.7537732,36.3823505 C93.6510928,36.3093608 93.6572784,36.1819381 93.7364536,36.0644124 Z M96.220701,36.0969485 C96.2268866,36.103134 96.2330722,36.1093196 96.2380206,36.1155052 C96.2157526,36.1847835 96.1959588,36.2515876 96.1749278,36.3171546 C96.1452371,36.2874639 96.1118351,36.2565361 96.0809072,36.2256082 C96.1254433,36.1860206 96.1712165,36.1439588 96.220701,36.0969485 Z M93.6148454,34.0198351 L93.6371134,34.0322062 C93.6705155,34.1769485 93.894433,34.3068454 94.0416495,34.4466392 L94.0271134,34.3518454 L94.0107216,34.2449897 L94.9051546,34.7559175 C94.9113402,34.8214845 94.9187629,34.8907629 94.9249485,34.9588041 L94.995,34.9020515 L95.0659794,34.8462268 L95.1760825,34.9093196 L95.1064948,34.9939072 L95.0424742,35.088701 L94.7245361,34.8115876 C94.68,34.8412784 94.6354639,34.869732 94.5909278,34.8981856 C94.7443299,34.9748866 94.8197938,35.0985979 94.9026804,35.2185979 C94.8705155,35.2235464 94.8371134,35.2272577 94.8049485,35.2334433 C94.7760825,35.2961237 94.7516151,35.3736495 94.7245819,35.4425613 L94.6812371,35.5365361 L94.1468041,35.9051959 L93.283299,35.4140619 L93.2808247,34.9018969 C93.3501031,34.914268 93.4268041,34.9241649 93.5146392,34.9303505 L93.393866,34.8182371 L93.2795876,34.7126186 L93.2795876,34.5901443 L93.3117526,34.4317938 L93.2950515,34.4373608 L93.2783505,34.4429278 L93.2783505,34.2771546 C93.3797938,34.3860206 93.5134021,34.3043711 93.6148454,34.0198351 Z M96.5665979,35.6554227 L96.6371134,35.6962474 C96.5814433,35.7754227 96.5183505,35.8434639 96.457732,35.8805773 C96.4898969,35.8026392 96.5319588,35.7308866 96.5665979,35.6554227 Z M95.3062268,35.5189691 C95.3148866,35.5214433 95.3210722,35.5251546 95.329732,35.5263918 C95.329732,35.637732 95.329732,35.7490722 95.3284948,35.8641237 C95.2626186,35.8093814 95.2169227,35.7483763 95.187232,35.6842397 L95.1627216,35.6191753 L95.3062268,35.5189691 Z M95.8407835,35.2341856 L96.0387216,35.3467629 C96.010268,35.402433 95.9842887,35.4581031 95.9583093,35.5137732 C96.0634639,35.6139794 96.1414021,35.6882062 96.2416082,35.7834639 C96.1127423,35.8473814 96.0019175,35.8460069 95.9019748,35.7800561 L95.8432577,35.7327423 L95.8407835,35.2341856 Z M97.9510515,34.4847423 L98.0933196,34.5663918 L98.0945567,34.7630928 C98.0698144,34.7705155 98.0487835,34.7841237 98.0364124,34.8051546 C97.9201237,35.0253608 97.8109828,35.2538144 97.7027583,35.4831844 L97.5403299,35.8270103 L97.4846598,35.7948454 C97.6343505,35.3717526 97.7865155,34.9449485 97.9510515,34.4847423 Z M94.1492784,35.0540619 L94.068866,35.0862268 C94.0997938,35.2940619 94.1307216,35.5018969 94.1616495,35.7084948 C94.1901031,35.709732 94.2197938,35.7109691 94.2470103,35.7134433 C94.308866,35.6070515 94.3719588,35.5018969 94.4523711,35.3658144 C94.3707216,35.2816907 94.2606186,35.1678763 94.1492784,35.0540619 Z M96.9879588,35.3317938 C97.0881649,35.4146804 97.176,35.4901443 97.2601237,35.5581856 C97.2489897,35.5891134 97.2366186,35.6126186 97.2217732,35.6249897 L97.213732,35.6290103 L97.2056907,35.6311753 L96.9434227,35.4790103 C96.9607423,35.4270515 96.9731134,35.3812784 96.9879588,35.3317938 Z M93.8684536,34.6161237 C93.7286598,34.869732 93.5876289,35.120866 93.4478351,35.3757113 L93.4982474,35.4197835 L93.5505155,35.4647835 L93.9389691,34.6829278 C93.9154639,34.6594227 93.8931959,34.6383918 93.8684536,34.6161237 Z M96.8555876,33.8473814 L97.6176495,34.290268 C97.5273402,34.2543918 97.4432165,34.1962474 97.4147629,34.2284124 C97.3430103,34.3088247 97.2675464,34.4362474 97.2613608,34.551299 C97.2502268,34.7950103 97.2947629,35.0411959 97.296,35.2886186 C97.296,35.3121237 97.2947629,35.3381031 97.2922887,35.3653196 C97.2254845,35.3232577 97.1339381,35.2849072 97.012701,35.2490309 C97.067134,35.0708866 97.1178557,34.9026392 97.1661031,34.7405773 C97.1450722,34.7244948 97.1265155,34.7084124 97.1067216,34.6923299 C97.0572371,34.7529485 97.0089897,34.813567 96.9520825,34.8828454 C96.9223918,34.8110928 96.8988866,34.7517113 96.870433,34.6811959 C96.7467216,34.8358351 96.6007423,34.9323299 96.7949691,35.1822268 C96.8190928,35.2119175 96.8202526,35.2631804 96.8083647,35.3260992 L96.7924948,35.3925361 L96.6390928,35.3022268 C96.6242474,35.1710928 96.5809485,35.0374845 96.6019794,34.9261443 C96.6885773,34.5896495 96.8234227,34.2605773 96.8456907,33.9154227 C96.8469278,33.8882062 96.8531134,33.8708866 96.8555876,33.8473814 Z M95.3330722,35.0529485 L95.3329175,35.0691856 L95.3318351,35.0863505 L95.287299,35.1172784 C95.3021443,35.0962474 95.3145155,35.0739794 95.3330722,35.0529485 Z M95.3378969,35.000866 L95.4034639,35.0379794 L95.3651134,35.0639588 C95.3564536,35.0577732 95.3453196,35.0503505 95.3354227,35.0441649 C95.3378969,35.0293196 95.3378969,35.0157113 95.3378969,35.000866 Z M96.6523299,33.8434227 C96.6783093,33.8694021 96.7055258,33.8966186 96.7315052,33.9238351 L96.4594948,34.4823918 L96.1884124,35.0409485 L95.9211959,34.8863093 C95.9352165,34.7625979 95.946488,34.6520825 95.9575762,34.5463322 L95.9743918,34.3902268 L96.031299,34.4025979 C96.0461443,34.4990928 96.0597526,34.5955876 96.0844948,34.7687835 C96.1616907,34.6134021 96.2499711,34.488899 96.3037311,34.3718384 L96.336866,34.2850722 L96.3665567,34.2850722 C96.3578969,34.2788866 96.3492371,34.2739381 96.3405773,34.2677526 C96.3467629,34.2430103 96.3554227,34.2195052 96.3566598,34.1947629 C96.3677938,33.8619794 96.5211959,33.8990928 96.6523299,33.8434227 Z M95.4958763,34.5050309 L95.4971134,34.6980206 L95.3548454,34.6176082 C95.4006186,34.581732 95.448866,34.5421443 95.4958763,34.5050309 Z M94.8223918,33.8682887 C94.8335258,33.9957113 94.8458969,34.1206598 94.8570309,34.2456082 L94.6750206,34.1713814 L94.4920825,34.0971546 L94.8223918,33.8682887 Z M95.4915464,33.4046186 L95.4952577,34.2174021 C95.4420619,34.1444124 95.4136082,33.9934845 95.3764948,33.7163711 L95.2008247,33.7200825 L95.0325773,33.7237938 L95.4915464,33.4046186 Z M93.3529485,33.8710103 L93.5063505,33.9576082 L93.3919175,34.0833299 L93.2774845,34.2099794 L93.2762474,33.9415258 C93.304701,33.9180206 93.3319175,33.8957526 93.3529485,33.8710103 Z M93.268701,31.845732 L93.8662268,32.1884124 L93.8155052,32.3121237 L93.7647835,32.4358351 L93.8390103,32.490268 L93.9503505,32.2354227 L94.9474639,32.8032577 C94.9771546,32.8849072 95.0414845,32.9616082 95.1107629,33.0803711 C95.0662268,33.1088247 94.9858144,33.1595464 94.9004536,33.2139794 C94.9095258,33.2378969 94.9202474,33.2662131 94.9340848,33.3014937 L94.9573608,33.3599588 L94.1396289,33.9253196 L93.2748866,33.4329485 L93.2724124,32.8465567 C93.3095258,32.9018144 93.3510378,32.9515739 93.3951157,32.9973013 L93.4629278,33.0630515 L93.443134,33.0976907 C93.4604536,33.1174845 93.4777732,33.1372784 93.4926186,33.1583093 C93.5111753,33.1508866 93.5322062,33.1434639 93.5495258,33.1348041 C93.7350928,33.2696495 93.9528247,33.3339794 94.1755052,33.3030515 C94.054268,33.2115052 93.934268,33.1211959 93.8117938,33.0284124 C93.8711753,33.0049072 93.9293196,32.9814021 93.9948866,32.9554227 C93.8711753,32.8576907 93.7870515,32.7908866 93.6621031,32.6906804 C93.6336495,32.7438763 93.6039588,32.7970722 93.5767423,32.850268 L93.4253505,32.7361443 L93.2711753,32.6201649 L93.268701,31.845732 Z M96.376701,33.5692784 L96.5387629,33.663299 C96.474433,33.7214433 96.4113402,33.7795876 96.3470103,33.8364948 L96.3060309,33.7443299 L96.2641237,33.6521649 L96.376701,33.5692784 Z M97.5299381,32.2642474 L97.8750928,32.4634227 C97.8713814,32.4658969 97.8701443,32.4683711 97.866433,32.4696082 C97.8627216,32.4720825 97.8577732,32.4770309 97.8540619,32.4795052 C97.8293196,32.4634227 97.8070515,32.4498144 97.7810722,32.433732 C97.7835464,32.5116701 97.7835464,32.5710515 97.7847835,32.6230103 C97.7204536,32.8828041 97.6577732,33.1458969 97.5938099,33.4155876 L97.4965361,33.8254845 L97.0251959,33.5520825 C97.0338557,33.5434227 97.0412784,33.5372371 97.0511753,33.5298144 C97.1402474,33.459299 97.2157113,33.3541443 97.2491134,33.2056907 L97.0388041,33.318732 L96.8322062,33.438268 L96.6726186,33.3454845 C96.7307629,33.2984742 96.7876701,33.2489897 96.8421031,33.1933196 C96.9262268,33.1067216 96.9695258,32.924866 97.0054021,32.7764124 C97.0350928,32.6465155 97.0239588,32.499299 97.037567,32.2877526 L97.1281856,32.4502784 C97.1526186,32.4940412 97.1724124,32.5296082 97.1909691,32.5636289 C97.3592165,32.5091959 97.4618969,32.401567 97.5299381,32.2642474 Z M95.832,33.2536907 L95.9124124,33.2994639 L95.8732887,33.3902371 L95.8332371,33.4800825 L95.832,33.2536907 Z M95.2923711,32.9985979 L95.3950515,33.0579794 L95.171134,33.2126186 C95.214433,33.140866 95.2564948,33.0715876 95.2923711,32.9985979 Z M95.8248247,31.2729485 L96.1143093,31.4411959 C96.0710103,31.4820206 96.0264742,31.5253196 95.9769897,31.5710928 C96.0744124,31.5618144 96.1627887,31.5727165 96.2342899,31.5646559 L96.2998763,31.5488247 L96.547299,31.6923299 C96.4965773,31.7888247 96.4433814,31.8840825 96.3864742,31.9743918 C96.4545155,32.0461443 96.5101856,32.1030515 96.5534845,32.1488247 C96.5027629,32.3752165 96.4545155,32.5917113 96.395134,32.8601649 C96.283299,32.847299 96.1983835,32.8835216 96.1289864,32.9485641 L96.0796701,33.002433 L95.8458557,32.8651134 L95.838433,32.8626392 L95.8310103,32.8601649 L95.8248247,31.2729485 Z M95.3463093,31.5202474 C95.3116701,31.6229278 95.278268,31.7206598 95.2436289,31.8221031 C95.3038351,31.8130309 95.3596426,31.7924124 95.4110515,31.7613471 L95.484866,31.7070515 L95.4885773,32.7190103 L95.3858969,32.660866 C95.3933196,32.5779794 95.3920825,32.4926186 95.3722887,32.3936495 C95.3524948,32.2823093 95.4279588,32.1388041 95.4638351,31.9990103 C95.2485773,32.0472577 95.0395052,32.094268 94.8774433,32.1301443 L94.8861031,32.2527732 L94.8947629,32.3800412 L94.4605361,32.1326186 L94.5458969,32.0732371 C94.5644536,32.0843711 94.5842474,32.0967423 94.6028041,32.1066392 L94.6202784,32.0548351 L94.6423918,32.0076701 L95.3463093,31.5202474 Z M95.9117938,29.3484948 L97.7117938,30.3938557 C97.7130309,30.4346804 97.7130309,30.4779794 97.714268,30.5200412 C97.749732,30.5299381 97.7989416,30.5436838 97.8585979,30.5605452 L97.9555052,30.5880825 L97.9666392,30.5410722 L98.0779794,30.6054021 L98.0841649,32.1901443 L97.6350928,31.9291134 C97.669732,31.7460206 97.6882887,31.5468454 97.7241649,31.3588041 C97.6326186,31.4317938 97.5398351,31.5047835 97.4272577,31.5950928 C97.4235464,31.509732 97.4185979,31.4218969 97.4124124,31.3068454 C97.3357113,31.3340619 97.266433,31.357567 97.1785979,31.3884948 C97.2713814,31.0062268 97.3567423,30.6536495 97.4445773,30.2849897 C97.3876701,30.2998351 97.2998351,30.3183918 97.2058144,30.3394227 C97.2132371,30.6882887 97.1884948,30.9691134 96.9101443,31.1781856 C96.863134,31.2136495 96.8199725,31.2606598 96.7791936,31.3140848 L96.7196289,31.3983918 L96.4771546,31.2561237 C96.4957113,31.2041649 96.5130309,31.149732 96.5340619,31.1002474 C96.5155052,31.0990103 96.4981856,31.0990103 96.4783918,31.0977732 L96.4262784,31.1463299 L96.3732371,31.1967423 L95.8363299,30.8849897 C95.8449897,30.8305567 95.8561237,30.7773608 95.8647835,30.7179794 C95.9662268,30.7402474 96.0726186,30.7946804 96.1691134,30.7736495 C96.252,30.7538557 96.3237526,30.648701 96.4004536,30.5818969 C96.3818969,30.5423093 96.360866,30.5039588 96.3423093,30.4656082 C96.2606598,30.5163299 96.1827216,30.5695258 96.1159175,30.6115876 C96.0144742,30.5249897 95.9278763,30.4507629 95.8400412,30.3790103 L95.8307629,30.4770515 L95.8214845,30.5769485 L95.8190103,30.0177732 C95.8437526,30.0128247 95.869732,30.0103505 95.8932371,30.0029278 C95.8981856,29.7988041 95.9043711,29.5810722 95.9117938,29.3484948 Z M93.2601649,29.8664742 L93.7327423,30.1349278 C93.7290309,30.1547216 93.7277938,30.1769897 93.7203711,30.1943093 L93.7772784,30.212866 L93.8341856,30.2314227 L93.8378969,30.1943093 L94.613567,30.6359588 C94.6098557,30.6508041 94.6061443,30.6644124 94.602433,30.6792577 L94.6154227,30.6620928 L94.6284124,30.6458557 L95.0267629,30.8710103 L94.9799072,31.0104948 L94.9339794,31.1481237 C94.8498557,31.1877113 94.7620206,31.2248247 94.6717113,31.2656495 C94.6432577,31.2371959 94.6148041,31.2025567 94.5838763,31.161732 C94.5801649,31.2136907 94.5764536,31.2582268 94.5739794,31.3077113 C94.5578969,31.315134 94.5430515,31.3213196 94.5244948,31.3287423 C94.5405773,31.3398763 94.5554227,31.347299 94.570268,31.3559588 L94.5609897,31.5073505 L94.5517113,31.6541031 L94.3500619,31.7938969 C94.3488247,31.7926598 94.3463505,31.7901856 94.3451134,31.7901856 L94.2303711,31.8616289 L94.1174845,31.9386392 L94.0877938,31.9200825 L94.1522784,31.7697732 L94.2176907,31.6194639 L94.1273814,31.5526598 L93.9974845,31.8693608 L93.2663505,31.4524536 L93.2601649,29.8664742 Z M95.2834639,31.0187216 L95.316866,31.0372784 C95.3119175,31.0521237 95.3094433,31.0632577 95.305732,31.0793402 C95.2983093,31.0570722 95.2908866,31.0397526 95.2834639,31.0187216 Z M95.0185979,30.1178557 C95.1361237,30.459299 95.2610722,30.4246598 95.4429278,30.1512577 L95.4604021,30.1350206 L95.4788041,30.121567 L95.4800412,30.4654845 L95.4477216,30.5796082 L95.4144742,30.699299 L94.8330309,30.3689897 C94.8936495,30.2873402 94.954268,30.2056907 95.0185979,30.1178557 Z M95.4754639,29.444866 L95.4779381,29.7924948 C95.4717526,29.8085773 95.4630928,29.8221856 95.4593814,29.838268 C95.4148454,30.0436289 95.2626804,30.033732 95.0981443,29.9496082 C94.965,29.8803299 94.8432216,29.9616508 94.7427545,30.1877695 L94.7010309,30.2935258 L94.4523711,30.1524948 L95.4754639,29.444866 Z M98.0755052,30.1015258 L98.0767423,30.2103918 L98.052,30.1967835 L98.0755052,30.1015258 Z M98.0738969,29.8319588 L98.075134,30.042268 C98.0343093,30.0298969 97.9848247,30.0162887 97.9341031,30.0014433 C97.9934845,29.9606186 98.0343093,29.8962887 98.0738969,29.8319588 Z M95.8092371,27.3104742 L96.4673814,27.6939794 L96.430268,27.8844948 L96.5218144,27.9463505 L96.5626392,27.8592887 L96.6034639,27.7731546 L96.9820206,27.9933608 C96.9708866,28.1282062 96.9671753,28.2816082 96.9486186,28.4461443 C96.9028454,28.4981031 96.5873814,28.5401649 96.9053196,28.8519175 C96.9176907,28.8655258 96.8669691,29.0003711 96.8422268,29.0943918 C97.1304742,28.9174845 97.2566598,28.6304742 97.1564536,28.2729485 C97.142433,28.2226392 97.1333608,28.1772784 97.128504,28.1357663 L97.1242887,28.0762474 L97.6352165,28.3743918 C97.5238763,28.4919175 97.4075876,28.6143918 97.2752165,28.7517113 C97.4450384,28.8101931 97.4788801,28.821644 97.6416381,28.5109436 L97.6945979,28.4077938 L97.9741856,28.5710928 C97.9061443,28.6910928 97.8430515,28.8073814 97.7849072,28.9273814 C97.7465567,29.0053196 97.7552165,29.1253196 97.7416082,29.2255258 C97.8121237,29.1908866 97.8937732,29.1760412 97.9494433,29.1141856 L98.0109897,29.0428969 L98.0706804,28.9669691 L98.0731546,29.2589278 C98.0632577,29.2972784 98.0521237,29.3331546 98.0471753,29.3801649 C98.0150103,29.6993402 97.9717113,29.7067629 97.6970722,29.4432577 C97.6995464,29.5760412 97.7014708,29.7000275 97.7032119,29.8192486 L97.705732,29.9950103 L95.9552165,28.9781031 C95.9948041,28.9570722 96.0517113,28.9261443 96.1358351,28.8828454 C96.0388454,28.8343505 95.953732,28.7652701 95.8735274,28.7446449 L95.8141856,28.7393402 L95.8129485,28.4226392 C95.9836701,28.3026392 96.0071753,28.0861443 95.9094433,27.7075876 L95.8591856,27.8186186 L95.8117113,27.9240825 L95.8092371,27.3104742 Z M93.2532371,27.8862268 L93.9262268,28.269732 C93.8606598,28.4651959 93.7926186,28.6618969 93.720866,28.869732 C93.871299,28.7578969 93.9884784,28.6294351 94.0743043,28.4919472 L94.1328247,28.3872577 L95.3785979,29.0961237 L94.1241649,29.9658144 L93.8680825,29.8185979 C93.8767423,29.7010722 93.8866392,29.5798351 93.8977732,29.4511753 C93.9258144,29.4454021 93.9654021,29.4368797 94.0084719,29.427441 L94.0746804,29.4128247 L94.0771546,29.3670515 C94.0165361,29.349732 93.9447835,29.295299 93.8977732,29.3212784 C93.7461384,29.4050486 93.7126606,29.5288104 93.7139807,29.6645178 L93.7171546,29.7332371 L93.2581856,29.4722062 L93.2532371,27.8862268 Z M95.4682887,27.4630103 L95.4732371,28.7570309 L95.166433,28.5825979 C95.2010722,28.539299 95.2295258,28.4576495 95.2418969,28.3116701 C95.0968692,28.3584901 94.8664586,28.005803 94.7929481,28.2801482 L94.7779794,28.3623918 L94.4439588,28.1706392 L94.8645773,27.8823918 C94.9928837,27.9311694 95.0712005,27.8572455 95.1314692,27.739305 L95.1602474,27.6770309 L95.4682887,27.4630103 Z M97.9594639,26.5860206 L98.0621443,26.6466392 L98.0621443,26.8012784 C97.9755464,26.9658144 97.8778144,27.1204536 97.7825567,27.2788041 C97.6365773,27.5249897 97.7281237,27.7588041 97.8741031,27.8726186 C97.9637938,27.9427216 98.0131065,27.9148866 98.0478144,27.8506827 L98.0670928,27.8082887 L98.0683299,28.2301443 L97.2555464,27.757567 C97.2815258,27.7315876 97.3099794,27.7043711 97.3421443,27.680866 C97.3990515,27.6400412 97.4720412,27.6091134 97.5054433,27.5435464 C97.6613196,27.2317938 97.8085361,26.9101443 97.9594639,26.5860206 Z M93.2445773,25.9063505 L94.8293196,26.8082062 L94.7810722,27.5244948 L94.2379794,27.8993402 C94.2346804,27.8284124 94.2220344,27.7580344 94.1996747,27.6896724 L94.1588041,27.5888247 L94.0388041,27.9414021 L93.2507629,27.4923299 L93.2445773,25.9063505 Z M97.4460619,27.1309691 C97.4658557,27.1569485 97.4831753,27.1829278 97.501732,27.2076701 C97.3819794,27.3224742 97.2353072,27.412734 97.1307563,27.5411563 L97.0613196,27.6456082 L96.7508041,27.4662268 C96.7619381,27.4439588 96.7730722,27.4204536 96.7829691,27.4006598 C96.989567,27.3165361 97.2171959,27.2237526 97.4460619,27.1309691 Z M98.0646186,27.2955052 L98.0658557,27.4377732 C98.058433,27.4427216 98.0510103,27.4476701 98.0435876,27.4513814 C98.0287423,27.4229278 98.0126598,27.3944742 97.9953402,27.3660206 C98.0188454,27.3437526 98.0411134,27.3190103 98.0646186,27.2955052 Z M95.1204124,26.9738557 L95.3703093,27.1161237 L94.9954639,27.3746804 C95.0387629,27.2361237 95.0808247,27.1025155 95.1204124,26.9738557 Z M95.8010722,25.3313402 L96.8130309,25.9202062 C96.7326186,26.0550515 96.6509691,26.1886598 96.5705567,26.3235052 C96.5915876,26.3470103 96.6126186,26.3692784 96.6336495,26.3940206 C96.7462268,26.2665979 96.8600412,26.1428866 96.9701443,26.0105155 L96.9701443,26.0105155 L97.2868454,26.1948454 C97.249732,26.2517526 97.2163299,26.3037113 97.1891134,26.3482474 C97.2039588,26.6290722 97.2658144,26.8628866 97.2150928,27.0274227 C97.1470515,27.2364948 96.8254021,27.1931959 96.617567,26.9284536 C96.5891134,27.074433 96.563134,27.2080412 96.5371546,27.3404124 L96.5371546,27.3404124 L96.0435464,27.0534021 C96.1771546,26.9853608 96.3132371,26.9173196 96.4468454,26.8492784 C96.4394227,26.8220619 96.432,26.7948454 96.4245773,26.768866 C96.3058144,26.7416495 96.1858144,26.7156701 96.0311753,26.6810309 C95.9903505,26.757732 95.9383918,26.8579381 95.8839588,26.9606186 L95.8839588,26.9606186 L95.820866,26.9247423 C95.8159175,26.922268 95.8109691,26.9210309 95.8072577,26.9185567 L95.8072577,26.9185567 L95.8047835,26.2195876 C95.8790103,26.1094845 95.9346804,25.9808247 95.9099381,25.7841237 L95.9099381,25.7841237 L95.8023093,25.6962887 L95.8010722,25.3313402 Z M95.4598763,25.4830103 L95.4648247,26.4912577 L95.4427113,26.5435258 L95.4215258,26.5939381 L95.4648247,26.6310515 L95.4648247,26.7770309 L95.2248247,26.6409485 C95.2545155,26.5444536 95.2829691,26.4491959 95.315134,26.3502268 C95.2475052,26.4005361 95.1886735,26.4447973 95.1342405,26.4852096 L95.0553402,26.5432165 L94.4367835,26.1918763 L95.4598763,25.4830103 Z M97.5116289,26.3261031 L97.7058557,26.4386804 C97.7083299,26.4980619 97.709567,26.5574433 97.7108041,26.6143505 C97.5908041,26.619299 97.5079175,26.5240412 97.5116289,26.3261031 Z M97.5637113,24.8299381 C97.5835052,25.2183918 97.745567,25.2963299 97.9694845,25.4534433 L98.0147938,25.481433 L98.0573196,25.5029278 L98.0610309,26.2501443 L97.5958763,25.9792165 L97.6382474,25.8763814 L97.6787629,25.7726186 L97.6008247,25.7095258 L97.5364948,25.8095773 L97.4721649,25.908701 L97.1802062,25.7379794 C97.3484536,25.4917938 97.4882474,25.2060206 97.5637113,24.8299381 Z M93.2362887,23.9243711 L95.3628866,25.1367423 L94.4610309,25.7602474 C94.489732,25.6286186 94.4875546,25.4764041 94.4468981,25.317539 L94.4083711,25.1976186 L94.3501588,25.4009485 C94.3125992,25.5307668 94.2777353,25.6512647 94.2435644,25.7690671 L94.1925773,25.9445773 L94.1072165,26.0039588 L93.2424742,25.5115876 L93.2362887,23.9243711 Z M97.1876289,24.9813608 C97.2272165,25.0209485 97.265567,25.0630103 97.3051546,25.1025979 L97.1478866,25.3654845 L96.9896907,25.6283711 L96.8597938,25.5516701 C96.9179381,25.4712577 96.9773196,25.3908454 97.0292784,25.3042474 C97.0898969,25.2040412 97.1356701,25.0889897 97.1876289,24.9813608 Z M96.6972188,25.0436014 L96.8689485,25.044701 C96.8491546,25.1634639 96.8318351,25.2822268 96.8083299,25.3985155 L96.7956495,25.4521753 L96.7956495,25.4521753 L96.7848247,25.5086186 L96.2367835,25.1894433 C96.3963711,25.1288247 96.5052371,25.0818144 96.6141031,25.0558351 C96.6413196,25.0484124 96.6690859,25.0449759 96.6972188,25.0436014 Z M35.1249897,9.28164948 C39.3707629,9.28164948 41.9241649,11.6284536 41.9241649,14.8647423 L41.9241649,25.0795876 L37.8268454,25.0795876 L37.5002474,23.6841237 L37.3802474,23.6841237 C36.5204536,24.6639175 35.1546804,25.3468041 33.2247835,25.3468041 C29.7200412,25.3468041 27.7901443,23.2387629 27.7901443,20.4762887 C27.7901443,17.5962887 29.749732,15.6960825 34.026433,15.6960825 C35.1843711,15.6960825 36.7282887,15.9336082 37.3517938,16.1414433 L37.3517938,14.8647423 C37.3517938,13.7958763 36.6689072,12.9645361 34.9765361,12.9645361 C33.5513814,12.9645361 32.7200412,13.7364948 32.7200412,14.6878351 L28.4433402,14.6878351 C28.4433402,11.7769072 30.5513814,9.28164948 35.1249897,9.28164948 Z M67.8431753,5.48123711 L67.8431753,9.55010309 L71.5545155,9.55010309 L71.5545155,13.4395876 L67.8431753,13.4395876 L67.8431753,19.2886598 C67.8431753,20.7447423 68.4666804,21.3682474 69.8324536,21.3682474 C70.3371959,21.3682474 70.8419381,21.2791753 71.3169897,21.1010309 L71.6138969,21.1010309 L71.6138969,24.9014433 C71.1388454,25.0795876 69.9215258,25.3468041 68.4666804,25.3468041 C64.8741031,25.3468041 63.269567,23.2090722 63.269567,20.3884536 L63.269567,13.4395876 L60.7458557,13.4395876 L60.7458557,9.55010309 L63.4786392,9.55010309 L63.4786392,6.31381443 L67.546268,5.48123711 L67.8431753,5.48123711 Z M18.558433,9.28202062 C23.5464742,9.28202062 26.3077113,12.6667629 26.3077113,17.3294433 C26.3077113,21.9611959 23.6058557,25.3459381 18.558433,25.3459381 C13.5097732,25.3459381 10.8079175,21.9921237 10.8079175,17.3294433 C10.8079175,12.6667629 13.5691546,9.28202062 18.558433,9.28202062 Z M50.1481237,9.28239175 C52.1379082,9.28239175 53.2946884,9.98914902 54.0456238,10.7850579 L54.1501856,10.899299 L54.1489485,10.8151753 L54.1438454,10.8218247 L54.1378144,10.8275464 L54.1378144,10.6865155 L54.1426082,10.6828041 L54.1464742,10.6790928 L54.1415258,10.3079588 L54.1390515,10.3116701 L54.1365773,10.3153814 L54.1341031,9.89352577 L56.3955464,11.2061031 L56.3980206,11.7665155 L56.7382268,11.7665155 L56.7382268,11.630433 C56.7530722,11.5970309 56.7666804,11.5636289 56.7802887,11.5289897 L56.759567,11.5115155 L56.7369897,11.4931134 L56.7369897,11.347134 L56.8161649,11.390433 L56.8310103,11.0069278 L57.2058557,10.747134 L57.1508041,10.9279072 L57.0957526,11.1021856 L57.3802887,11.2023918 L57.400701,10.901 L57.4211134,10.5986804 L57.9629691,10.2250722 C57.9691546,10.3314639 57.9963711,10.4353814 58.0433814,10.5355876 L58.1030722,10.3582165 L58.1646186,10.1817732 L58.9514227,10.6320825 L58.9563711,11.7640412 L58.966268,11.7665155 L58.966268,14.5908454 L58.9675052,14.5920825 L58.9712165,15.4964124 L58.9687423,15.5001237 L58.966268,15.5038351 L58.966268,15.8032165 L58.9693608,15.8007423 L58.9724536,15.798268 L58.9736907,16.179299 L58.966268,16.1743505 L58.966268,16.5677526 L58.9761649,16.572701 L58.9823505,18.1599175 L58.966268,18.1500206 L58.966268,18.5434227 L58.9835876,18.5533196 L58.9910103,20.139299 L58.966268,20.1269278 L58.966268,25.0790928 L54.8689485,25.0790928 L54.3938969,23.5945567 L54.275134,23.5945567 C53.532866,24.4852784 52.3452371,25.3463093 50.1481237,25.3463093 C46.2277113,25.3463093 43.8524536,21.961567 43.8524536,17.3001237 C43.8524536,12.667134 46.2277113,9.28239175 50.1481237,9.28239175 Z M102.047876,9.28239175 C105.90767,9.28239175 108.342309,12.667134 108.342309,17.3298144 C108.342309,21.961567 105.967052,25.3463093 102.047876,25.3463093 C100.063996,25.3463093 98.9086116,24.6440608 98.154563,23.8528657 L98.0495258,23.739299 L98.052,24.2700206 L97.3926186,23.8865155 C97.3889072,23.7491959 97.7328247,23.7405361 97.495299,23.4065155 C97.4309691,23.4873402 97.3726873,23.5725636 97.3171546,23.6607194 L97.2355052,23.7949691 L96.1851959,23.1838351 L96.1768454,23.1753299 L96.1703505,23.1677526 L95.9476701,23.0180619 L95.9359175,23.0250206 L95.9241649,23.0329072 L95.8054021,22.9623918 L95.7979794,22.9605361 L95.7905567,22.9586804 L95.7905567,22.9116701 L95.7682887,22.8968247 L95.335299,23.2197113 L95.2623093,23.2197113 L94.0981856,24.0238351 L93.2346804,23.5314639 L93.2334433,23.2197113 L93.2284948,23.2197113 L93.2284948,21.5520825 L93.2260206,21.5508454 L93.2198351,19.964866 L93.2284948,19.9698144 L93.2284948,19.5751753 L93.2185979,19.5702268 L93.2111753,17.9830103 L93.2284948,17.9929072 L93.2284948,9.55084536 L97.3258144,9.55084536 L97.800866,11.0353814 L97.9196289,11.0353814 C98.663134,10.1434227 99.8507629,9.28239175 102.047876,9.28239175 Z M95.9301031,23.4305155 L96.2307216,23.6061856 C96.2690722,23.8882474 96.3197938,24.1356701 96.5536082,24.2779381 C96.6446598,24.1730309 96.6882062,24.0689155 96.6779134,23.9484899 L96.66,23.8548454 L97.0694845,24.0936082 C96.9123711,24.3806186 96.7540206,24.6663918 96.5362887,24.8964948 C96.5226804,24.8705155 96.485567,24.8024742 96.4224742,24.6898969 C96.3705155,24.8012371 96.322732,24.9000515 96.2613789,25.027049 L96.1948454,25.1649485 L95.8125773,24.9447423 L95.8057732,24.9411856 L95.7989691,24.9385567 L95.7940206,23.9773196 C95.8558763,23.9513402 95.9226804,23.9228866 96.0030928,23.8882474 C95.9993814,23.9030928 96.0191753,23.817732 96.0426804,23.7101031 C95.9935052,23.6961856 95.9450258,23.682268 95.8732345,23.6615657 L95.7927835,23.6383505 L95.7927835,23.5876289 C95.8410309,23.5331959 95.8868041,23.4812371 95.9301031,23.4305155 Z M98.0533711,24.7346186 L98.0549691,25.1085361 C98.0302268,25.1233814 98.0042474,25.1357526 97.9807423,25.1530722 C97.9745567,25.0763711 97.9411546,24.9798763 97.9646598,24.9266804 L98.008732,24.8297216 L98.0533711,24.7346186 Z M9.32449485,9.28189691 L9.32449485,13.4695258 L7.83995876,13.4695258 C5.67253608,13.4695258 4.27583505,14.9243711 4.27583505,17.4183918 L4.27583505,25.0798351 L0.00037113402,25.0798351 L0.00037113402,9.55035052 L3.80078351,9.55035052 L4.15707216,11.8068454 L4.27583505,11.8068454 C4.95995876,10.4410722 6.2651134,9.28189691 8.25562887,9.28189691 L9.32449485,9.28189691 Z M83.7566598,9.28189691 L83.7566598,13.4695258 L82.2733608,13.4695258 C80.104701,13.4695258 78.7092371,14.9243711 78.7092371,17.4183918 L78.7092371,25.0798351 L74.4337732,25.0798351 L74.4337732,9.55035052 L78.2341856,9.55035052 L78.5904742,11.8068454 L78.7092371,11.8068454 C79.3921237,10.4410722 80.6985155,9.28189691 82.6890309,9.28189691 L83.7566598,9.28189691 Z M119.890268,9.28189691 L119.890268,13.4695258 L118.406969,13.4695258 C116.238309,13.4695258 114.842845,14.9243711 114.842845,17.4183918 L114.842845,25.0798351 L110.567381,25.0798351 L110.567381,9.55035052 L114.367794,9.55035052 L114.724082,11.8068454 L114.842845,11.8068454 C115.525732,10.4410722 116.832124,9.28189691 118.822639,9.28189691 L119.890268,9.28189691 Z M90.5565773,10.040866 L90.5565773,25.0792165 L85.9829691,25.0792165 L85.9829691,10.0594227 C86.658433,10.3402474 87.421732,10.5035464 88.2691546,10.5035464 C89.112866,10.5035464 89.8774021,10.3328247 90.5565773,10.040866 Z M96.2814433,24.2519588 C96.1849485,24.4560825 96.0896907,24.6589691 95.994433,24.8618557 C96.0241237,24.8865979 96.0550515,24.9113402 96.0859794,24.9373196 C96.1898969,24.7418557 96.2925773,24.548866 96.3964948,24.3546392 C96.3581443,24.3212371 96.3185567,24.2865979 96.2814433,24.2519588 Z M95.4528247,23.5035052 L95.4577732,24.7975258 L94.4284948,24.211134 L95.4528247,23.5035052 Z M97.6973711,24.6266186 L97.7195876,24.6727629 L97.7533711,24.7516186 L97.710946,24.6576482 L97.6973711,24.6266186 Z M97.6042887,24.4042474 L97.7527423,24.4896082 L97.7094433,24.5189897 L97.6661443,24.5465155 L97.6042887,24.4042474 Z M95.1348866,24.462268 C95.2499381,24.177732 95.3291134,23.9736082 95.412,23.7707216 C95.1757113,23.742268 95.0829278,23.9340206 95.1348866,24.462268 Z M34.560866,18.7554639 C33.0763299,18.7554639 32.3043711,19.4086598 32.3043711,20.24 C32.3043711,21.1307216 33.0157113,21.7839175 34.3827216,21.7839175 C36.252,21.7839175 37.3517938,20.6841237 37.3517938,19.4086598 L37.3517938,19.2602062 C36.4004536,18.8729897 35.4515876,18.7554639 34.560866,18.7554639 Z M100.651175,13.2906392 C98.3946804,13.2906392 97.5930309,15.1623918 97.5930309,17.3298144 C97.5930309,17.6434227 97.6146031,17.945201 97.6509626,18.2382809 L97.692,18.5285773 C97.6957113,18.5335258 97.6944742,18.5372371 97.6932371,18.5409485 C97.9517938,20.1368247 98.7856082,21.3380619 100.651175,21.3380619 C102.968289,21.3380619 103.710557,19.4972371 103.710557,17.3298144 C103.710557,15.1623918 102.90767,13.2906392 100.651175,13.2906392 Z M18.558433,13.290268 C16.6582268,13.290268 15.4693608,14.5385155 15.4693608,17.3294433 C15.4693608,20.1500619 16.6866804,21.3376907 18.558433,21.3376907 C20.4586392,21.3376907 21.646268,20.1500619 21.646268,17.3294433 C21.646268,14.5088247 20.4586392,13.290268 18.558433,13.290268 Z M51.5435876,13.2906392 C49.2277113,13.2906392 48.4842062,15.1314639 48.4842062,17.3001237 C48.4842062,19.4675464 49.2870928,21.3380619 51.5435876,21.3380619 C53.8000825,21.3380619 54.601732,19.4675464 54.601732,17.3001237 C54.601732,15.1314639 53.8594639,13.2906392 51.5435876,13.2906392 Z M54.4962062,8.12754639 L56.2467216,9.14569072 L56.1417961,9.20168156 C56.119299,9.21345704 56.0941443,9.22651546 56.0661031,9.24094845 C56.1640825,9.2894433 56.2486021,9.35852371 56.3285295,9.37914887 L56.3877526,9.38445361 L56.3889897,9.69991753 C56.218268,9.81991753 56.1947629,10.0364124 56.2924948,10.4149691 L56.3427526,10.3050206 L56.3902268,10.1997113 L56.3939381,10.8120825 L55.7345567,10.4298144 L55.7535773,10.3340928 L55.7716701,10.239299 L55.6801237,10.1774433 L55.6397629,10.2640412 L55.5984742,10.3506392 L55.2199175,10.1291959 C55.2310515,9.99558763 55.236,9.84218557 55.2533196,9.67764948 C55.2990928,9.62569072 55.6145567,9.58362887 55.2966186,9.27187629 C55.2842474,9.25826804 55.3349691,9.12342268 55.3597113,9.02940206 C55.072701,9.20630928 54.9452784,9.49331959 55.0454845,9.85084536 C55.0595052,9.9003299 55.0685773,9.94541581 55.0738007,9.98720275 L55.0788866,10.0475464 L54.5667216,9.74940206 C54.6780619,9.63187629 54.7943505,9.50940206 54.9267216,9.37208247 C54.7568997,9.31360075 54.723058,9.30214978 54.5612295,9.61285021 L54.5085773,9.716 L54.2289897,9.55270103 C54.2957938,9.43146392 54.3588866,9.31641237 54.4170309,9.19641237 C54.4553814,9.11847423 54.4479588,8.99847423 54.461567,8.89826804 L54.3157709,8.9605819 C54.2926323,8.97304467 54.2710515,8.98816495 54.2524948,9.00837113 L54.1909485,9.08074227 L54.1312577,9.15682474 L54.1300206,8.86486598 C54.1386804,8.82651546 54.1498144,8.79063918 54.1547629,8.74362887 C54.1869278,8.42321649 54.2314639,8.41703093 54.504866,8.68053608 C54.5011546,8.48136082 54.4986804,8.30074227 54.4962062,8.12754639 Z M56.7288247,9.36676289 L57.036866,9.54119588 C57.0009897,9.58449485 56.9725361,9.66614433 56.9601649,9.81212371 C57.1051927,9.76530373 57.3366574,10.1179908 57.4093571,9.84364561 L57.4240825,9.76140206 L57.7581031,9.95191753 L57.3374845,10.2414021 C57.2091782,10.1926244 57.1317703,10.2665483 57.0709822,10.3844888 L57.0418144,10.4467629 L56.7350103,10.6595464 L56.7288247,9.36676289 Z M58.0790103,8.15797938 L58.3338557,8.30519588 C58.326433,8.42272165 58.315299,8.54395876 58.3054021,8.67261856 C58.2621031,8.68127835 58.195299,8.69612371 58.1272577,8.71096907 C58.1272577,8.72581443 58.1260206,8.74065979 58.1247835,8.75674227 C58.1866392,8.77406186 58.2583918,8.82849485 58.3041649,8.80251546 C58.4557997,8.71874521 58.4901864,8.59498338 58.488347,8.45927601 L58.4847835,8.3905567 L58.9437526,8.65158763 L58.9499381,10.237567 L58.2757113,9.85406186 C58.3412784,9.65859794 58.4105567,9.46189691 58.4810722,9.25406186 C58.3306392,9.36490722 58.2134598,9.49396289 58.1282672,9.63172784 L58.0703505,9.73653608 L56.8233402,9.0276701 L58.0790103,8.15797938 Z M54.1178969,5.93253608 L54.5669691,6.19480412 C54.5323299,6.37665979 54.5137732,6.57583505 54.4778969,6.7651134 C54.5694433,6.69212371 54.6634639,6.61913402 54.7760412,6.52882474 C54.7785155,6.61418557 54.784701,6.70202062 54.7908866,6.81707216 C54.8663505,6.78985567 54.9356289,6.7651134 55.0234639,6.73542268 C54.9306804,7.11769072 54.8453196,7.47026804 54.7574845,7.83769072 C54.8156289,7.82408247 54.9022268,7.80428866 54.9962474,7.78449485 C54.9888247,7.43562887 55.0148041,7.15480412 55.2919175,6.94573196 C55.3397526,6.91026804 55.3826392,6.86325773 55.4231432,6.80983276 L55.482433,6.72552577 L55.7249072,6.86779381 L55.6973814,6.94665979 L55.668,7.0236701 L55.7236701,7.02614433 L55.7762474,6.97696907 L55.8288247,6.92593814 L56.365732,7.23769072 C56.3570722,7.29336082 56.3459381,7.3465567 56.3372784,7.40470103 C56.2358351,7.3836701 56.1294433,7.32923711 56.0329485,7.35026804 C55.9500619,7.37006186 55.8783093,7.47521649 55.8016082,7.54202062 C55.8214021,7.58160825 55.8411959,7.61995876 55.8597526,7.65830928 C55.9414021,7.60635052 56.0205773,7.55439175 56.0861443,7.5123299 C56.1875876,7.59892784 56.2741856,7.67191753 56.3620206,7.74490722 L56.3717629,7.64593814 L56.3803711,7.55061856 L56.3830515,8.10614433 C56.3583093,8.10985567 56.333567,8.11356701 56.3100619,8.12098969 C56.3059381,8.25707216 56.3018144,8.39865292 56.2973242,8.54719817 L56.290268,8.77542268 L54.490268,7.73006186 L54.4877938,7.60387629 C54.4345979,7.58903093 54.3504742,7.56428866 54.2477938,7.53583505 L54.2411443,7.55887629 L54.2354227,7.58284536 L54.1240825,7.51727835 L54.1178969,5.93253608 Z M57.5010309,7.83039175 L57.7496907,7.97142268 L56.7265979,8.67905155 L56.7253608,8.33018557 C56.7303093,8.31534021 56.7389691,8.30173196 56.7426804,8.28441237 C56.7872165,8.08028866 56.9393814,8.09018557 57.1039175,8.17430928 C57.2560825,8.25348454 57.3946392,8.13595876 57.5010309,7.83039175 Z M54.1268041,8.08152577 C54.1676289,8.09389691 54.2171134,8.10750515 54.2678351,8.12235052 C54.2282474,8.14956701 54.197457,8.18668041 54.1692325,8.22782589 L54.1280412,8.29183505 L54.1268041,8.08152577 Z M58.0845773,6.18515464 L58.1155052,6.20371134 L57.9856082,6.5043299 C58.0140619,6.52659794 58.0437526,6.54886598 58.0746804,6.57113402 L58.1396289,6.41231959 L58.2045773,6.25443299 L58.9357113,6.67134021 L58.9418969,8.25731959 L58.4693196,7.98886598 C58.4730309,7.96907216 58.474268,7.94680412 58.4816907,7.92948454 C58.4445773,7.9171134 58.4062268,7.90474227 58.3678763,7.89237113 L58.3661753,7.91092784 L58.3654021,7.92948454 L57.589732,7.48659794 C57.5922062,7.47298969 57.5959175,7.45938144 57.5996289,7.44329897 L57.5872577,7.46154639 L57.5748866,7.47793814 L57.175299,7.25278351 C57.2074639,7.15876289 57.2371546,7.06597938 57.2680825,6.9756701 C57.2680825,6.97443299 57.2680825,6.97443299 57.2693196,6.97319588 C57.3534433,6.93608247 57.4400412,6.89896907 57.5303505,6.85814433 C57.5588041,6.88659794 57.5872577,6.92123711 57.6181856,6.96206186 C57.6218969,6.91010309 57.6256082,6.86556701 57.6293196,6.81608247 C57.6441649,6.80742268 57.6590103,6.80247423 57.677567,6.79505155 C57.6614845,6.78391753 57.6466392,6.77649485 57.6317938,6.76783505 L57.6412268,6.61582474 L57.6515876,6.46845361 L57.852,6.32989691 C57.8532371,6.32989691 57.8569485,6.33360825 57.8569485,6.33360825 C57.9361237,6.28783505 58.0103505,6.2371134 58.0845773,6.18515464 Z M88.2696495,2.7145567 C90.0214021,2.7145567 91.0308866,3.72404124 91.0308866,5.35703093 C91.0308866,7.01971134 90.0214021,8.02919588 88.2696495,8.02919588 C86.4585155,8.02919588 85.5071753,7.01971134 85.5071753,5.35703093 C85.5071753,3.72404124 86.4585155,2.7145567 88.2696495,2.7145567 Z M54.1253196,7.91327835 L54.1500619,7.9268866 L54.1383093,7.97405155 L54.1265567,8.02214433 L54.1253196,7.91327835 Z M56.788701,7.42449485 L57.3689072,7.75480412 C57.3082887,7.83645361 57.2489072,7.91810309 57.1833402,8.00593814 C57.0658144,7.66449485 56.9421031,7.69913402 56.7590103,7.97253608 L56.7421546,7.98861856 L56.7243711,8.00098969 L56.723134,7.65830928 C56.7429278,7.58408247 56.7651959,7.50490722 56.788701,7.42449485 Z M56.8962062,7.04457732 L56.9078041,7.07535052 L56.9184742,7.10519588 L56.8850722,7.08540206 C56.8900206,7.07179381 56.8924948,7.06065979 56.8962062,7.04457732 Z M56.1223918,5.12148454 L56.3562062,5.25756701 L56.3640928,5.26112371 L56.3710515,5.26375258 L56.3784742,6.85096907 L56.0877526,6.68272165 C56.1310515,6.64189691 56.1755876,6.59859794 56.2250722,6.55282474 C56.1276495,6.56210309 56.0392732,6.55120103 55.9677719,6.5592616 L55.9021856,6.57509278 L55.6547629,6.43158763 C55.7054845,6.33509278 55.7586804,6.23983505 55.8155876,6.14952577 C55.7475464,6.0777732 55.6918763,6.02086598 55.6498144,5.97509278 C55.7005361,5.74870103 55.7475464,5.53220619 55.8081649,5.26375258 C55.9467216,5.27983505 56.0444536,5.21921649 56.1223918,5.12148454 Z M56.7133608,5.40490722 L56.8160412,5.46305155 C56.8086186,5.54593814 56.8098557,5.63129897 56.8296495,5.73026804 C56.8494433,5.84037113 56.7739794,5.98387629 56.7381031,6.1236701 C56.9545979,6.07665979 57.162433,6.02964948 57.3244948,5.9937732 L57.3158351,5.87114433 L57.3071753,5.74387629 L57.7426392,5.99129897 L57.6560412,6.0494433 L57.599134,6.01727835 L57.5816598,6.06908247 L57.5595464,6.11624742 L56.8556289,6.6036701 C56.890268,6.50098969 56.9249072,6.40325773 56.9583093,6.30181443 C56.8981031,6.31006186 56.8422955,6.3304055 56.7908866,6.3617457 L56.7170722,6.41686598 L56.7133608,5.40490722 Z M58.062433,4.19723711 L58.9271753,4.68960825 L58.9296495,5.27723711 C58.8925361,5.22197938 58.8515739,5.17221993 58.8078625,5.12649255 L58.7403711,5.06074227 L58.7589278,5.02610309 C58.7416082,5.00630928 58.7255258,4.98651546 58.7094433,4.96548454 C58.6908866,4.97290722 58.6710928,4.9803299 58.6525361,4.98775258 C58.4669691,4.85414433 58.2504742,4.78981443 58.0277938,4.82074227 C58.1477938,4.91228866 58.2690309,5.00259794 58.390268,5.09538144 C58.3308866,5.1188866 58.2727423,5.14239175 58.2084124,5.16713402 C58.2900619,5.2331134 58.3546667,5.28479725 58.4256861,5.34161283 L58.5399588,5.4331134 L58.6265567,5.27352577 L58.776866,5.38718557 L58.9308866,5.50362887 L58.9333608,6.27682474 L58.3358351,5.93538144 C58.3692371,5.85373196 58.4038763,5.76960825 58.4385155,5.68795876 L58.4007835,5.66074227 L58.3630515,5.63352577 L58.2517113,5.88837113 L57.2545979,5.32053608 C57.2261443,5.23764948 57.1605773,5.16094845 57.091299,5.04342268 C57.1358351,5.01496907 57.2162474,4.96424742 57.3016082,4.90981443 C57.2925361,4.88589691 57.2818144,4.85758076 57.2683436,4.82230011 L57.2459381,4.76383505 L58.062433,4.19723711 Z M54.7054021,4.29830928 L55.1767423,4.57171134 L55.1507629,4.59397938 C55.0616907,4.66449485 54.9874639,4.76964948 54.9528247,4.91810309 L55.1632887,4.80506186 L55.3709691,4.68552577 L55.5305567,4.77830928 C55.4711753,4.82531959 55.414268,4.87480412 55.3598351,4.92923711 C55.2757113,5.01707216 55.2324124,5.19892784 55.1965361,5.34738144 C55.1680825,5.47727835 55.1779794,5.62449485 55.1656082,5.83604124 C55.0901443,5.70119588 55.0493196,5.62820619 55.0122062,5.56016495 C54.8766186,5.60272165 54.7845773,5.68090722 54.7177138,5.7807868 L54.672,5.85954639 L54.3280825,5.66037113 L54.3355052,5.65418557 C54.3392165,5.65171134 54.3441649,5.64676289 54.3491134,5.64305155 C54.3726186,5.66037113 54.3948866,5.67397938 54.420866,5.68882474 C54.4200412,5.66325773 54.4194914,5.63961512 54.4191249,5.61753036 L54.4183918,5.50078351 C54.5136495,5.11109278 54.6076701,4.71397938 54.7054021,4.29830928 Z M56.9675567,5.01756701 L56.909567,5.12395876 L56.8068866,5.06581443 L56.9675567,5.01756701 Z M56.3688247,4.64247423 L56.3700619,4.87010309 L56.2896495,4.8243299 C56.3156289,4.76371134 56.3416082,4.70309278 56.3688247,4.64247423 Z M56.7070515,3.90663918 C56.7602474,3.97839175 56.788701,4.1305567 56.8258144,4.4076701 L57.0011753,4.40395876 L57.1709691,4.40024742 L56.7107629,4.71818557 L56.7070515,3.90663918 Z M55.8550515,4.28742268 C55.8835052,4.34804124 55.9107216,4.40989691 55.9379381,4.47051546 L55.8811856,4.51304124 L55.8253608,4.55463918 L55.663299,4.46061856 C55.7276289,4.40247423 55.7907216,4.34309278 55.8550515,4.28742268 Z M56.0135258,3.08284536 L56.2807423,3.23748454 C56.2597113,3.42181443 56.244866,3.57769072 56.2275464,3.73356701 C56.2089897,3.72861856 56.190433,3.72490722 56.1706392,3.72119588 C56.1557938,3.62470103 56.1421856,3.52820619 56.1174433,3.35501031 C56.0402474,3.51039175 55.951967,3.63489485 55.8988404,3.75195546 L55.8663093,3.83872165 L55.8353814,3.83748454 C55.8440412,3.84490722 55.852701,3.84985567 55.8613608,3.85604124 C55.8564124,3.88078351 55.8465155,3.90428866 55.8452784,3.92903093 C55.8341443,4.26057732 55.6807423,4.22470103 55.5496082,4.27913402 C55.5236289,4.25439175 55.4964124,4.22593814 55.470433,4.19995876 C55.6522887,3.82758763 55.8341443,3.45521649 56.0135258,3.08284536 Z M55.4108041,2.73138144 L55.5629691,2.82169072 C55.5778144,2.95282474 55.6211134,3.08643299 55.6000825,3.1977732 C55.5134845,3.53303093 55.3786392,3.86334021 55.3576082,4.20725773 L55.3525052,4.24313402 L55.3464742,4.27529897 L54.5844124,3.83241237 C54.6747216,3.86952577 54.7600825,3.92643299 54.787299,3.89550515 C54.8590515,3.81509278 54.9345155,3.68643299 54.940701,3.57261856 C54.9518351,3.32890722 54.9085361,3.08272165 54.907299,2.83529897 C54.9060619,2.81179381 54.9085361,2.78457732 54.9097732,2.75859794 C54.9765773,2.80065979 55.0681237,2.8377732 55.1893608,2.8748866 C55.1349278,3.05303093 55.0842062,3.22127835 55.0359588,3.38334021 C55.0569897,3.39818557 55.0755464,3.41550515 55.0953402,3.43158763 C55.1448247,3.37096907 55.1930722,3.3091134 55.2499794,3.23983505 C55.2796701,3.31282474 55.3031753,3.37220619 55.3316289,3.44272165 C55.4553402,3.28808247 55.6013196,3.19035052 55.4070928,2.94169072 C55.3761649,2.90210309 55.3835876,2.82416495 55.4108041,2.73138144 Z M57.3449072,3.87830928 L57.5273814,3.95253608 L57.7098557,4.02676289 L57.3795464,4.25562887 C57.3684124,4.12820619 57.3572784,4.00325773 57.3449072,3.87830928 Z M58.9256907,3.9134433 L58.9269278,4.18189691 L58.8851753,4.21715464 L58.8489897,4.25241237 L58.6968247,4.16581443 C58.7735258,4.08292784 58.8477526,3.99756701 58.9256907,3.9134433 Z M58.0552577,2.21748454 L58.92,2.70985567 L58.9212371,3.22202062 C58.8531959,3.20964948 58.7764948,3.19975258 58.6874227,3.19356701 L58.8086598,3.30475258 L58.9224742,3.41129897 L58.9224742,3.5337732 C58.9113402,3.58696907 58.9014433,3.63769072 58.8903093,3.69212371 L58.9070103,3.6865567 L58.9237113,3.68098969 L58.9249485,3.84676289 C58.8347766,3.74999313 58.7182131,3.80277663 58.6230453,4.01553977 L58.5884536,4.10284536 L58.5649485,4.09047423 C58.5315464,3.94696907 58.308866,3.81707216 58.1604124,3.67727835 L58.1754124,3.77207216 L58.1913402,3.87892784 L57.2969072,3.368 C57.2907216,3.30119588 57.2845361,3.23315464 57.2771134,3.1651134 L57.2070619,3.22186598 L57.1360825,3.27769072 L57.0259794,3.21459794 C57.0754639,3.16387629 57.1175258,3.09954639 57.1608247,3.03521649 C57.2659794,3.12676289 57.3723711,3.21830928 57.4775258,3.3123299 C57.5220619,3.28263918 57.5678351,3.25418557 57.611134,3.22573196 C57.4589691,3.14903093 57.382268,3.02531959 57.2993814,2.90531959 C57.3315464,2.90037113 57.3649485,2.89665979 57.3971134,2.88923711 C57.4259794,2.82738144 57.4504467,2.75013058 57.47748,2.68131042 L57.5208247,2.58738144 L58.0552577,2.21748454 Z M56.704701,3.42527835 L56.8469691,3.50569072 L56.7773814,3.56151546 L56.7059381,3.61826804 L56.704701,3.42527835 Z M58.6527835,2.65913402 L58.2630928,3.44098969 C58.2878351,3.46449485 58.3101031,3.48552577 58.3336082,3.50779381 C58.4734021,3.25418557 58.614433,3.00181443 58.7554639,2.74820619 C58.7208247,2.71851546 58.6874227,2.68882474 58.6527835,2.65913402 Z M56.8380619,3.05995876 C56.8467216,3.06614433 56.8566186,3.07356701 56.8665155,3.07975258 L56.8648144,3.10124742 L56.8640412,3.12181443 L56.7984742,3.08593814 L56.8380619,3.05995876 Z M56.9146392,3.00651546 L56.893299,3.03868041 L56.8701031,3.07084536 L56.8701031,3.0374433 Z M57.9562887,2.41047423 C57.8931959,2.51686598 57.8313402,2.62202062 57.7509278,2.75686598 C57.8313402,2.8422268 57.9414433,2.95480412 58.0527835,3.06985567 L58.0931443,3.0537732 L58.134433,3.03769072 L58.0404124,2.41418557 C58.0119588,2.41294845 57.9835052,2.41171134 57.9562887,2.41047423 Z M56.3000871,2.34373769 L56.3588041,2.39105155 L56.3612784,2.88960825 L56.1645773,2.77579381 C56.1917938,2.72012371 56.2177732,2.66569072 56.2437526,2.61002062 C56.1398351,2.50981443 56.0606598,2.43558763 55.9604536,2.3403299 C56.0893196,2.27641237 56.2001443,2.27778694 56.3000871,2.34373769 Z M54.9962474,2.49138144 L55.2585155,2.64478351 C55.242433,2.69674227 55.2300619,2.74251546 55.2139794,2.792 C55.1137732,2.70787629 55.0259381,2.63364948 54.9418144,2.56437113 L54.9595979,2.52493814 L54.9801649,2.49756701 L54.9962474,2.49138144 Z M56.873567,2.2596701 C56.9394433,2.31441237 56.9851392,2.37541753 57.0148299,2.43955412 L57.0393402,2.50461856 L56.8958351,2.60482474 L56.8723299,2.59740206 C56.8723299,2.48606186 56.873567,2.37472165 56.873567,2.2596701 Z M55.745567,2.24321649 L55.6909794,2.35625773 L55.6354639,2.46837113 L55.5649485,2.42754639 C55.6206186,2.34713402 55.6837113,2.2803299 55.745567,2.24321649 Z M58.7103093,1.52346392 C58.7573196,1.62243299 58.7907216,1.73006186 58.8327835,1.83150515 C58.8241237,1.86861856 58.8142268,1.90820619 58.8043299,1.94531959 C58.8241237,1.928 58.8439175,1.91191753 58.8649485,1.89459794 L58.8895361,1.94238144 L58.9169072,1.98738144 L58.9181443,2.31645361 L58.6620619,2.17047423 C58.6484536,1.97253608 58.6336082,1.76470103 58.62,1.55315464 C58.6496907,1.54325773 58.6806186,1.53459794 58.7103093,1.52346392 Z M55.5648247,1.55587629 L55.5530722,1.65407216 L55.5413196,1.75134021 L55.5227629,1.76247423 L55.5388454,1.77731959 C55.5180619,1.93171134 55.4869856,2.08293608 55.4063456,2.20692454 L55.3359588,2.29443299 L55.2171959,2.22515464 C55.2196701,1.9814433 55.2901856,1.79835052 55.3804948,1.63505155 C55.4448247,1.6214433 55.5054433,1.5942268 55.5648247,1.55587629 Z M58.0151753,1.60412371 C58.1945567,1.64123711 58.3479588,1.66845361 58.4494021,1.7414433 C58.5339381,1.80226804 58.543732,1.90089347 58.4988293,2.00009164 L58.4654845,2.05938144 L57.9731134,1.7785567 L58.0151753,1.60412371 Z M56.027134,1.80651546 L56.1211546,1.89806186 C56.0766186,1.93764948 56.0308454,1.98094845 55.9813608,2.02548454 C55.9751753,2.01929897 55.9689897,2.01435052 55.9640412,2.00816495 C55.9863093,1.9388866 56.0061031,1.87331959 56.027134,1.80651546 Z M56.1077938,1.54783505 C56.1449072,1.60350515 56.1820206,1.66164948 56.2129485,1.72103093 C56.1906804,1.72474227 56.1288247,1.73587629 56.0422268,1.75319588 C56.065732,1.68391753 56.0867629,1.61587629 56.1077938,1.54783505 Z M58.9133711,1.51161856 L58.9155464,1.51393814 L58.9143093,1.51393814 L58.9133711,1.51161856 Z M58.4021443,0.764247423 C58.4046186,0.766721649 58.4083299,0.767958763 58.4108041,0.769195876 C58.5790515,0.928783505 58.7163711,1.10816495 58.8648247,1.2788866 L58.8891031,1.30347423 L58.9143093,1.32713402 L58.9133711,1.51161856 L58.6245155,1.23496907 L58.3279175,0.956 C58.3538969,0.891670103 58.3774021,0.826103093 58.4021443,0.764247423 Z M55.768701,1.12857732 C55.834268,1.20156701 55.8998351,1.2745567 55.9616907,1.35125773 C55.943134,1.39703093 55.9270515,1.44280412 55.9084948,1.48857732 C55.8837526,1.47125773 55.8590103,1.45517526 55.834268,1.43785567 C55.8132371,1.3388866 55.7909691,1.23249485 55.768701,1.12857732 Z M55.6342268,1.23373196 C55.6082474,1.29806186 55.5934021,1.36734021 55.5810309,1.44156701 C55.5661856,1.4217732 55.5501031,1.40445361 55.5340206,1.38837113 C55.5686598,1.33764948 55.603299,1.28692784 55.6342268,1.23373196 Z M57.8741443,1.03925773 C57.9545567,1.064 58.0362062,1.08750515 58.1153814,1.11224742 C58.1277526,1.15059794 58.1401237,1.19018557 58.153732,1.2297732 C58.1054845,1.27059794 58.0312577,1.28173196 57.9322887,1.2582268 C57.8729072,1.19389691 57.8630103,1.11843299 57.8741443,1.03925773 Z M58.7819381,0.655134021 L58.9118351,0.729360825 L58.9130722,0.907505155 C58.8697732,0.827092784 58.8264742,0.740494845 58.7819381,0.655134021 Z M57.9729897,0.51657732 C57.9927835,0.525237113 58.0138144,0.536371134 58.0348454,0.545030928 C58.0583505,0.558639175 58.0806186,0.571010309 58.1041237,0.58214433 L58.0852577,0.70771134 L58.0682474,0.833278351 L58.0694845,0.875340206 C58.0150515,0.885237113 57.9593814,0.895134021 57.9061856,0.906268041 C57.9235052,0.843175258 57.943299,0.780082474 57.9494845,0.721938144 C57.9569072,0.653896907 57.9643299,0.584618557 57.9729897,0.51657732 Z M58.0473402,0.236618557 L58.1438351,0.29228866 C58.1376495,0.331876289 58.132701,0.370226804 58.1277526,0.409814433 C58.0720825,0.413525773 58.0213608,0.424659794 57.9805361,0.449402062 L57.990433,0.35971134 L58.0003299,0.270020619 L58.0473402,0.236618557 Z" id="path-1"></path>
    </defs>
    <g id="Page-1" stroke="none" stroke-width="1" fill="none" fill-rule="evenodd">
        <g id="roadtrip-home" transform="translate(-15.000000, -10.000000)">
            <g id="HERO" transform="translate(0.000000, -83.000000)">
                <g id="logos/roadtripr" transform="translate(15.000000, 93.000000)">
                    <g id="logo">
                        <g id="Color/black">
                            <mask id="mask-2" fill="white">
                                <use xlink:href="#path-1"></use>
                            </mask>
                            <use id="Mask" fill="#231F20" xlink:href="#path-1"></use>
                            <g mask="url(#mask-2)" fill="#322A1D" id="Rectangle-6">
                                <g transform="translate(0.000000, -1.000000)">
                                    <rect x="0" y="0" width="120" height="41"></rect>
                                </g>
                            </g>
                        </g>
                    </g>
                </g>
            </g>
        </g>
    </g>
</svg>