<?xml version="1.0" encoding="UTF-8"?>
<svg width="24px" height="24px" viewBox="0 0 24 24" version="1.1" xmlns="http://www.w3.org/2000/svg" xmlns:xlink="http://www.w3.org/1999/xlink">
    <!-- Generator: Sketch 60.1 (88133) - https://sketch.com -->
    <title>sprite</title>
    <desc>Created with Sketch.</desc>
    <defs>
        <path d="M21.0354167,1.96554167 C19.7675417,0.698625 18.08375,0 16.2916667,0 C14.4995833,0 12.8157917,0.698625 11.548875,1.96458333 C11.5325833,1.980875 11.5162917,1.99716667 11.5,2.01441667 C11.4837083,1.99716667 11.468375,1.98183333 11.4520833,1.96554167 C10.1842083,0.698625 8.50041667,0 6.70833333,0 C4.91625,0 3.23245833,0.698625 1.96458333,1.96554167 C0.696708333,3.23245833 0,4.91625 0,6.70833333 C0,8.50041667 0.697666667,10.1842083 1.96458333,11.451125 L11.5,20.9865417 L21.0354167,11.451125 C22.3023333,10.1842083 23,8.50041667 23,6.70833333 C23,4.91720833 22.3023333,3.23245833 21.0354167,1.96554167 Z" id="path-1"></path>
        <path d="M24,2.36631471 C23.1166652,2.76786846 22.1688598,3.04019762 21.173015,3.16177817 C22.1898402,2.53709876 22.9681944,1.54626961 23.337097,0.369247605 C22.3832915,0.947740883 21.3304662,1.36780127 20.2086605,1.59551335 C19.3103453,0.612368467 18.0325785,0 16.6153213,0 C13.8963364,0 11.6917446,2.26171198 11.6917446,5.04961589 C11.6917446,5.44501417 11.7352349,5.83119937 11.819235,6.20048721 C7.72801263,5.98967249 4.10020278,3.97876565 1.6721596,0.923119012 C1.24772753,1.66780992 1.00627615,2.53552972 1.00627615,3.46178682 C1.00627615,5.21424448 1.87612071,6.76051408 3.19588757,7.66516669 C2.38902351,7.6374872 1.63015953,7.40977512 0.9658055,7.0312742 L0.9658055,7.09435769 C0.9658055,9.54069348 2.66349455,11.5823777 4.91455705,12.0470551 C4.502125,12.1609112 4.06722233,12.2239544 3.61730003,12.2239544 C3.29937794,12.2239544 2.99192646,12.1916885 2.69047498,12.1300936 C3.31733875,14.1379831 5.135028,15.5980761 7.28863936,15.6381068 C5.60444053,16.9920683 3.48082922,17.7967448 1.17427643,17.7967448 C0.776864014,17.7967448 0.385412394,17.772123 0,17.7274657 C2.1791016,19.1630173 4.76612543,20 7.54660057,20 C16.6033997,20 21.553996,12.3040157 21.553996,5.62967821 L21.5374862,4.9757905 C22.5047819,4.26799217 23.3416068,3.37870812 24,2.36631471" id="path-3"></path>
        <path d="M13.089219,9.91751737 L11.1876326,9.91751737 L11.1876326,16.9303933 L8.30655754,16.9303933 L8.30655754,9.96352442 L6.73867502,9.96352442 L6.73867502,7.54347262 L8.25947257,7.54347262 C8.25947257,6.82776994 8.26593917,6.19188915 8.25947257,5.52791914 C8.25947257,3.62236495 9.72173386,3.069472 11.0362736,3.069472 L13.2515577,3.069472 L13.2526355,3.069472 L13.2526355,5.46008737 C13.0665185,5.46116513 12.3415176,5.46008737 11.9686774,5.46008737 C11.921525,5.46008737 11.1379879,5.4169768 11.1379879,6.16999707 C11.1427705,6.47756398 11.1379879,7.53666924 11.1379879,7.53666924 L13.2612576,7.53666924 L13.089219,9.91751737 Z M10,0 C4.47711428,0 0,4.47716656 0,10.0000337 C0,15.5228334 4.47711428,20 10,20 C15.5228184,20 20,15.5228334 20,10.0000337 C20,4.47716656 15.5228184,0 10,0 L10,0 Z" id="path-5"></path>
        <path d="M2.43671785,8.50909277 C3.62736172,8.38912635 6.73119138,8.3238042 9.75020393,8.35513194 C13.009562,8.38891346 14.5440585,8.45741769 15.0992582,8.59393313 C16.1852776,8.86087999 16.7121289,9.64695306 16.8958005,11.2740012 C16.9258936,11.540585 16.9619651,12.3827684 16.982399,13.2567692 L16.990641,13.6604333 C17.0608734,17.7171628 16.7502727,19.0076842 15.5665049,19.5775443 C15.1195103,19.7927601 14.8271091,19.8421942 13.5637811,19.9162895 C12.1916779,19.9967265 6.59225461,20.0295444 4.72021163,19.9681439 C1.93940084,19.8769169 1.18641235,19.6824631 0.67447642,18.9229671 C0.467622101,18.6161435 0.235452646,17.9294654 0.161514201,17.4057565 C-0.0980457769,15.5676271 -0.0342904024,11.7346736 0.277690154,10.4136088 C0.560239013,9.21724985 1.22465873,8.63118805 2.43671785,8.50909277 Z M13.9906832,12.1196261 C13.5698704,12.1271779 13.2886899,12.2302592 12.9933353,12.4850604 C12.51066,12.9015535 12.4374513,13.2726348 12.4663129,15.1610388 C12.485094,16.3880419 12.5057566,16.6869664 12.5868107,16.8979805 C12.7252457,17.2582607 12.9752954,17.5326025 13.3186804,17.7007706 C13.7057397,17.8901376 14.340397,17.9028995 14.7306949,17.7290171 C15.2807746,17.4839975 15.5284752,17.0696332 15.571796,16.3219803 L15.571796,16.3219803 L15.6002584,15.832165 L14.5029613,15.832165 L14.5029613,16.1641539 C14.5029613,16.5707535 14.4388068,16.7483782 14.2475521,16.8715267 C14.0320085,17.0102382 13.76409,16.9220925 13.6350968,16.6699132 C13.5571786,16.5177339 13.5355011,16.3322772 13.5355011,15.8181258 L13.5355011,15.8181258 L13.5353187,15.1609827 L15.5844308,15.1609827 L15.5844308,14.3397948 C15.5844308,13.3062483 15.5021908,12.9768252 15.1475166,12.5892621 C14.834122,12.2468082 14.498343,12.1104496 13.9906832,12.1196261 Z M5.90813014,12.1968026 L4.82664924,12.1968026 L4.82673349,14.8786979 C4.82845586,17.3062773 4.85922062,17.5111071 5.1549706,17.7280087 C5.34866561,17.8700032 5.83595919,17.8851068 6.08822111,17.7569723 C6.18419057,17.7081544 6.37498916,17.5665969 6.51227246,17.4421039 L6.51227246,17.4421039 L6.76192305,17.2161654 L6.76192305,17.7896334 L7.84340395,17.7896334 L7.84340395,12.1968026 L6.76192305,12.1968026 L6.76192305,16.4621372 L6.51329875,16.7063838 C6.24646353,16.9686247 6.1385435,17.0013418 5.99759976,16.8628544 C5.92822831,16.7946919 5.91157701,16.5571315 5.90865799,15.1143253 L5.90813014,12.1968026 Z M9.72180993,10.2952558 L8.69726528,10.2952558 L8.69726528,17.7895774 L9.72180993,17.7895774 L9.72180993,17.2732523 L9.9554618,17.4806921 C10.0839988,17.5947314 10.269723,17.7225297 10.3681327,17.7645802 C10.6324137,17.8776782 11.0828749,17.8651516 11.2935378,17.7388547 L11.2935378,17.7388547 L11.35693,17.6914054 C11.4454528,17.6136136 11.5457154,17.4831504 11.6065903,17.3616221 C11.7401219,17.0951906 11.7428131,17.0584959 11.7615258,15.2459912 C11.7820174,13.2587637 11.7494726,12.8999288 11.5118866,12.4971388 C11.3798944,12.273318 11.06512,12.0849482 10.8229272,12.0849482 C10.5896744,12.0849482 10.2554348,12.2391443 10.0005957,12.4642536 L10.0005957,12.4642536 L9.72180993,12.7105058 L9.72180993,10.2952558 Z M4.99741238,10.2953118 L1.4114662,10.2953118 L1.4114662,11.3579452 L2.60678539,11.3579452 L2.60678539,17.7896334 L3.74517974,17.7896334 L3.74517974,11.3579452 L4.99741238,11.3579452 L4.99741238,10.2953118 Z M9.97436947,13.1433272 C10.1793309,13.0365037 10.257135,13.0221283 10.387029,13.066935 C10.6676963,13.163809 10.6979263,13.3774449 10.678461,15.1239553 L10.678461,15.1239553 L10.6609342,16.6808745 L10.5012208,16.8157653 C10.3056899,16.9809754 10.2096064,16.9828242 9.93519943,16.8266225 L9.93519943,16.8266225 L9.72175405,16.7050314 L9.72175405,13.2749799 Z M13.5378231,13.767706 C13.5608164,13.1749813 13.7474861,12.9743475 14.1740789,13.0664364 C14.403523,13.1159715 14.5030616,13.3683301 14.5030616,13.9008121 L14.5030616,13.9008121 L14.5030616,14.3220671 L13.5354304,14.3220671 L13.5354304,13.9008121 Z M7.35676149,2.30534636 C7.87900593,1.7059176 9.08654937,1.7236431 9.60224836,2.33828754 C9.94473252,2.74656778 9.97256776,2.92832694 9.97256776,4.75391853 L9.97206909,5.17157975 C9.96903106,6.24959278 9.95037591,6.46619857 9.87010988,6.6923841 C9.73258711,7.07952147 9.32737386,7.4540538 8.91625376,7.57402022 C8.52852164,7.68716311 8.337552,7.68302866 7.95191808,7.55277652 L7.95191808,7.55277652 L7.82288031,7.5028332 C7.66010297,7.43027116 7.52986913,7.33109802 7.37759516,7.16900049 C6.97778705,6.74333089 6.95582446,6.61626083 6.95582446,4.72596334 C6.95582446,2.90456222 6.98428688,2.73303276 7.35676149,2.30534636 Z M11.879378,1.90160842 L11.8799877,4.89613437 C11.8831713,6.32756484 11.9002614,6.60293107 11.9640127,6.65485356 C12.090155,6.75769952 12.2950594,6.68242779 12.5267841,6.44808599 L12.5267841,6.44808599 L12.7331709,6.23931281 L12.7331709,1.90160842 L13.8146518,1.90160842 L13.8146518,7.55036083 L12.7331709,7.55036083 L12.7331709,6.98158755 L12.4628007,7.21743076 C12.3141256,7.34712267 12.1100194,7.48767173 12.009272,7.52978939 C11.7744114,7.62782864 11.3807154,7.62413116 11.1896317,7.52218155 C11.107654,7.47845044 10.9923447,7.34724592 10.9334927,7.23079771 C10.8341593,7.03438308 10.8251736,6.83348666 10.80946,4.46029827 L10.80946,4.46029827 L10.7925604,1.90160842 L11.879378,1.90160842 Z M6.69146189,0.000383688377 C7.07422163,0.00302789637 7.15939517,0.0201874265 7.136879,0.0777479227 C7.1202075,0.120470625 6.79724565,1.12610678 6.41929749,2.31244888 L6.41929749,2.31244888 L5.73210555,4.46941312 L5.73210555,7.55025439 L4.59371121,7.55025439 L4.59291298,5.99826512 L4.59205774,4.44626465 L3.88869604,2.23710992 L3.18534575,0.027966395 L3.75681786,0.0119215722 C4.09133117,0.00252100917 4.34269224,0.0188571486 4.36306978,0.0512941332 C4.38224999,0.0817703329 4.56365233,0.724381172 4.76617343,1.47929457 C4.96880856,2.23420796 5.14742852,2.85198966 5.16330179,2.8521017 C5.17924349,2.85220254 5.32848876,2.34271219 5.49503272,1.71978764 C5.66163368,1.0969191 5.83610287,0.455137393 5.88282184,0.293624739 L5.88282184,0.293624739 L5.96781,0 Z M8.85523515,3.05455667 C8.71122395,2.74393472 8.21716826,2.74393472 8.07315706,3.05455667 C8.03023536,3.1470609 8.00883153,3.71450084 8.00883153,4.7593415 C8.00883153,6.58623281 8.03257302,6.69221603 8.44530098,6.70702836 C8.51320713,6.70943733 8.61020287,6.69574544 8.66085595,6.67666421 C8.89365259,6.58886586 8.91956069,6.39668653 8.91956069,4.7593415 L8.91927527,4.55673798 C8.91661121,3.64095301 8.89529541,3.14089395 8.85523515,3.05455667 Z" id="path-7"></path>
        <path d="M14.0418922,0 C17.3271704,0 19.9999637,2.67279333 20,5.95810785 L20,5.95810785 L20,14.0418922 C20,17.3272067 17.3272067,20 14.0418922,20 L14.0418922,20 L5.95810785,20 C2.67279333,20 0,17.3272067 0,14.0418922 L0,14.0418922 L0,5.95810785 C0,2.67279333 2.67279333,0 5.95810785,0 L5.95810785,0 Z M14.0418922,2.01199926 L5.95810785,2.01199926 C3.77875049,2.01199926 2.01199926,3.7787142 2.01199926,5.95810785 L2.01199926,5.95810785 L2.01199926,14.0418922 C2.01199926,16.2212495 3.77875049,17.9880007 5.95810785,17.9880007 L5.95810785,17.9880007 L14.0418922,17.9880007 C16.2212495,17.9880007 17.9880007,16.2212495 17.9880007,14.0418922 L17.9880007,14.0418922 L17.9880007,5.95810785 C17.9880007,3.7787142 16.2212495,2.01199926 14.0418922,2.01199926 L14.0418922,2.01199926 Z M10.181477,5.00876534 C13.0337148,5.00876534 15.3541887,7.32920292 15.3541887,10.1814407 C15.3541887,13.0336785 13.0337148,15.3541524 10.181477,15.3541524 C7.32923921,15.3541524 5.00876534,13.0336422 5.00876534,10.1814407 C5.00876534,7.32923921 7.32923921,5.00876534 10.181477,5.00876534 Z M10.181477,7.0207646 C8.43588599,7.0207646 7.0207646,8.43584969 7.0207646,10.181477 C7.0207646,11.9271043 8.43584969,13.3421894 10.181477,13.3421894 C11.927068,13.3421894 13.3421894,11.927068 13.3421894,10.181477 C13.3421894,8.43584969 11.9271043,7.0207646 10.181477,7.0207646 Z M15.182584,3.62674536 C15.8671143,3.62674536 16.4220357,4.18166676 16.4220357,4.866197 C16.4220357,5.55072725 15.8671143,6.10564865 15.182584,6.10564865 C14.4980538,6.10564865 13.9431324,5.55072725 13.9431324,4.866197 C13.9431324,4.18166676 14.4980538,3.62674536 15.182584,3.62674536 Z" id="path-9"></path>
        <path d="M20.0285346,0 C21.2568204,0.0014797129 22.2521039,0.996963725 22.2533259,2.22524953 C22.2518462,3.45336351 21.256639,4.44857067 20.0285346,4.45004084 C18.8547209,4.44887201 17.8933901,3.53962632 17.8096507,2.38660182 L17.8037337,2.22792256 L13.971201,1.32551727 L12.5119177,5.77956765 C15.1571574,5.88256521 17.5460346,6.63203502 19.3294323,7.79347599 C19.8276469,7.33214924 20.4820045,7.07649304 21.1609923,7.07788684 C22.6527147,7.07961476 23.8615733,8.28846382 23.8633195,9.78019581 C23.8677213,10.7562335 23.34186,11.6577033 22.4900704,12.1342854 C22.5288675,12.3808437 22.5489248,12.6305238 22.5489248,12.8837647 C22.5480528,16.7376258 17.9325239,19.8857558 12.1959373,19.9969601 L11.8819418,20 L11.5679462,19.9969601 C5.83136637,19.8857558 1.21628582,16.7376258 1.21628582,12.8837647 C1.21628582,12.6126813 1.23902566,12.3442805 1.28360798,12.0807866 C0.485784971,11.5881472 -3.73034936e-14,10.7174078 -3.73034936e-14,9.77974712 C0.0017279228,8.28819652 1.21030968,7.07941428 2.70186029,7.0774477 C3.36752107,7.0774477 4.00196468,7.32088433 4.4928475,7.75603448 C6.24531997,6.63122156 8.57081714,5.90136289 11.1448324,5.78367288 L11.5760804,5.76976336 L13.378218,0.269746888 L13.7714588,0.362481927 L13.7808144,0.36470627 L17.9811847,1.35360317 C18.3314662,0.533527192 19.1367737,0.0010978515 20.0285346,0 Z M11.8819418,6.65879396 C9.07976655,6.65879396 6.54911382,7.41361937 4.76525787,8.62097918 C4.71659918,8.6762918 4.65525315,8.71897436 4.58647991,8.74537053 C3.38579313,9.60274482 2.55116823,10.673236 2.24129726,11.8547437 C2.2403617,11.9137413 2.22762662,11.9719466 2.2038462,12.0259513 C2.20162186,12.0308487 2.19983666,12.0357556 2.19716363,12.0402138 C2.13787965,12.3174834 2.10798945,12.6002326 2.10798945,12.8837647 C2.10798945,16.3163645 6.49249332,19.1082964 11.8819418,19.1082964 C17.2713903,19.1082964 21.6558847,16.3159254 21.6558847,12.8837647 C21.6558847,12.6109057 21.6282474,12.3420562 21.5743,12.078104 C21.5452117,12.0175981 21.5301281,11.9513069 21.5301568,11.8841662 C21.2318753,10.7129209 20.4182051,9.64956103 19.2429407,8.79263542 C19.1681531,8.76548508 19.1020816,8.71865932 19.0516663,8.65709372 C17.2651469,7.42877927 14.7126517,6.65879396 11.8819418,6.65879396 Z M15.1469045,15.6391238 C15.3209951,15.4651573 15.6031525,15.4652528 15.777119,15.6393434 C15.9510759,15.813434 15.95099,16.0955818 15.7768898,16.2695579 C14.9739213,17.0720969 13.7161748,17.4622065 11.9305337,17.4622065 L11.9305337,17.4622065 L11.6208828,17.4581523 C9.99845738,17.4148841 8.83952575,17.0248887 8.08462621,16.2695579 C7.9105356,16.0953432 7.91064062,15.8129853 8.08484578,15.6389042 C8.2590605,15.4648041 8.54141836,15.4649091 8.71550897,15.6391238 C9.34192394,16.2655388 10.3932456,16.5705124 11.9305337,16.5705124 C13.4673826,16.5705124 14.5195921,16.2655388 15.1469045,15.6391238 Z M8.34188241,9.91796567 C9.24963377,9.91796567 9.98617757,10.6799223 9.98617757,11.5876737 C9.98617757,12.4954251 9.25008246,13.2319689 8.34188241,13.2319689 C7.43368237,13.2319689 6.67216483,12.4954251 6.67216483,11.5876737 C6.67216483,10.6799223 7.43412151,9.91796567 8.34188241,9.91796567 Z M15.5459391,9.91796185 L15.6878267,9.92419708 C16.5295848,9.99848315 17.1902438,10.7268538 17.1902438,11.5876699 C17.1902438,12.4958699 16.4545878,13.2319746 15.5459391,13.2319746 C14.6372904,13.2319746 13.8744459,12.4958699 13.8744459,11.5876699 C13.8744459,10.6790307 14.6372904,9.91796185 15.5459391,9.91796185 L15.5459391,9.91796185 Z M21.1600949,7.96914004 C20.768477,7.96859763 20.3873602,8.09569065 20.0744534,8.33117502 C21.1083813,9.15822952 21.8672163,10.1431169 22.2551111,11.223861 C22.7080942,10.8823337 22.9733351,10.34705 22.9707197,9.77974712 C22.969717,8.78018674 22.1596648,7.97012507 21.1600949,7.96914004 Z M2.70186029,7.96914178 C1.70248129,7.97037328 0.892696471,8.78035858 0.891713178,9.77974712 C0.891713178,10.3205679 1.13246724,10.8230402 1.53195154,11.1618849 C1.93277235,10.0896085 2.69918726,9.11275937 3.73713425,8.29372396 C3.43326805,8.08238278 3.07199853,7.96914178 2.70186029,7.96914178 Z M20.0280859,0.891264491 C19.2933178,0.891264491 18.6949887,1.48959356 18.6949887,2.22480085 C18.6949887,2.96000813 19.2933178,3.55789806 20.0280859,3.55789806 C20.7628541,3.55789806 21.3611736,2.96000813 21.3611736,2.22480085 C21.3611736,1.48959356 20.7632932,0.891264491 20.0280859,0.891264491 Z" id="path-11"></path>
    </defs>
    <g id="sprite" stroke="none" stroke-width="1" fill="none" fill-rule="evenodd">
        <g id="pin" transform="translate(6.000000, 4.000000)" fill="#322A1D" fill-rule="nonzero">
            <g id="pin-e">
                <path d="M6,0 C2.6862915,0 0,2.6862915 0,6 C0,6.43381507 0.0468302249,6.8787022 0.137808836,7.33359526 C0.485341472,9.07125844 1.45492414,10.8985489 2.85165436,12.7396932 C3.46559142,13.5489739 4.12236525,14.3072492 4.77930407,14.9940488 L5.11178248,15.3352751 L5.6216608,15.8313198 C5.6379579,15.8464575 5.6519867,15.8593547 5.6636636,15.86997 C5.85437422,16.0433433 6.14562578,16.0433433 6.3363364,15.86997 L6.58399997,15.6357059 L6.88821752,15.3352751 C6.99455616,15.2282228 7.10560495,15.1143712 7.22069593,14.9940488 C7.87763475,14.3072492 8.53440858,13.5489739 9.14834564,12.7396932 C10.5450759,10.8985489 11.5146585,9.07125844 11.8621912,7.33359526 C11.9531698,6.8787022 12,6.43381507 12,6 C12,2.6862915 9.3137085,0 6,0 Z M6,1 C8.76142375,1 11,3.23857625 11,6 C11,6.36577171 10.9600534,6.74526474 10.8816105,7.13747912 C10.5690192,8.70043577 9.66515141,10.4038788 8.35165436,12.1353068 C7.76246642,12.9119636 7.13017775,13.6419696 6.49805407,14.3028262 L6.17928736,14.6299959 L6,14.808 L5.66459318,14.4712996 C5.61143727,14.416757 5.55719341,14.3605849 5.50194593,14.3028262 C4.86982225,13.6419696 4.23753358,12.9119636 3.64834564,12.1353068 C2.33484859,10.4038788 1.43098084,8.70043577 1.11838951,7.13747912 C1.03994663,6.74526474 1,6.36577171 1,6 C1,3.23857625 3.23857625,1 6,1 Z" id="Path"></path>
                <path d="M6,3 C4.34314575,3 3,4.34314575 3,6 C3,7.65685425 4.34314575,9 6,9 C7.65685425,9 9,7.65685425 9,6 C9,4.34314575 7.65685425,3 6,3 Z M6,4 C7.1045695,4 8,4.8954305 8,6 C8,7.1045695 7.1045695,8 6,8 C4.8954305,8 4,7.1045695 4,6 C4,4.8954305 4.8954305,4 6,4 Z" id="Oval"></path>
            </g>
        </g>
        <g id="user" transform="translate(5.000000, 4.000000)" fill="#322A1D" fill-rule="nonzero">
            <path d="M7.3537006,9.99104027 L6.99999869,9.999 L7.02116481,10.0004482 C4.77021987,9.90507809 2.54527885,10.5116804 0.65421668,11.736317 C0.237982745,12.0276764 -0.000559714612,12.4868421 -1.31217644e-06,12.9765711 L-1.31217644e-06,15.5 C-1.31217644e-06,15.7761424 0.223856968,16 0.499998688,16 L13.4999987,16 C13.7761417,16 13.9999987,15.7761424 13.9999987,15.5 L13.9999987,12.976 C14.0005604,12.4868435 13.762018,12.0276769 13.3609997,11.7465721 C11.5606254,10.5802854 9.47601213,9.97441752 7.3537006,9.99104027 Z M7.0211648,10.9995518 C9.06497503,10.9129579 11.0851732,11.4637395 12.8022167,12.575683 L12.8682913,12.6336285 C12.9492904,12.7207589 13.0001494,12.8448329 13,12.9754269 L12.999,15 L0.999,15 L0.999999343,12.976 C0.999812555,12.8121852 1.07932696,12.6591294 1.21299967,12.5654279 C2.81471923,11.5285448 4.69845608,10.979662 6.61846678,10.9908693 L7.0211648,10.9995518 Z" id="Path"></path>
            <path d="M7,0 C4.790861,0 3,1.790861 3,4 C3,6.209139 4.790861,8 7,8 C9.209139,8 11,6.209139 11,4 C11,1.790861 9.209139,0 7,0 Z M7,1 C8.65685425,1 10,2.34314575 10,4 C10,5.65685425 8.65685425,7 7,7 C5.34314575,7 4,5.65685425 4,4 C4,2.34314575 5.34314575,1 7,1 Z" id="Oval"></path>
        </g>
        <g id="favorite" transform="translate(0.500000, 2.000000)" fill="#322A1D" fill-rule="nonzero">
            <path d="M15.989785,-0.472967961 C14.3852471,-0.406957537 12.8728498,0.184517713 11.6533654,1.21766374 L11.4990417,1.35316667 L11.3498434,1.22089069 C10.0510761,0.120053827 8.42472951,-0.479166667 6.70833333,-0.479166667 C4.7900082,-0.479166667 2.98416712,0.269340594 1.62588946,1.62659159 C0.268519381,2.98293569 -0.479166667,4.78847499 -0.479166667,6.70833333 C-0.479166667,8.62732951 0.268863218,10.4330489 1.62576133,11.789947 L11.5,21.6641857 L21.3742387,11.789947 C22.7311368,10.4330489 23.4791667,8.62732951 23.4791667,6.70833333 C23.4791667,4.78995098 22.7308932,2.98337417 21.3742387,1.62671967 C20.0158329,0.269340594 18.2099918,-0.479166667 16.2916667,-0.479166667 L15.989785,-0.472967961 Z M16.2916667,0.479166667 C17.9558042,0.479166667 19.5180426,1.12670248 20.6967228,2.30449174 C21.8735228,3.48129176 22.5208333,5.04411106 22.5208333,6.70833333 L22.5141403,7.00099969 C22.442875,8.55558067 21.8045331,10.0043646 20.6965947,11.112303 L11.5,20.309 L2.30340533,11.112303 C1.12622077,9.93511844 0.479166667,8.37315126 0.479166667,6.70833333 C0.479166667,5.04266982 1.12585462,3.48102437 2.30327721,2.30449174 C3.48195738,1.12670248 5.04419577,0.479166667 6.70833333,0.479166667 C8.37247089,0.479166667 9.93470929,1.12670248 11.1133895,2.30449174 L11.5064485,2.70544817 L11.8978042,2.29298725 C13.0654072,1.12658606 14.6276938,0.479166667 16.2916667,0.479166667 Z" id="Mask"></path>
        </g>
        <g id="favorite-full" transform="translate(0.500000, 2.000000)">
            <mask id="mask-2" fill="white">
                <use xlink:href="#path-1"></use>
            </mask>
            <use id="Mask" fill="#E7553A" fill-rule="nonzero" xlink:href="#path-1"></use>
        </g>
        <g id="calendar" transform="translate(4.000000, 4.000000)" fill="#322A1D" fill-rule="nonzero">
            <path d="M14.5,2 L1.5,2 C0.671857625,2 0,2.67185763 0,3.5 L0,14.5 C0,15.3281424 0.671857625,16 1.5,16 L14.5,16 C15.3281424,16 16,15.3281424 16,14.5 L16,3.5 C16,2.67185763 15.3281424,2 14.5,2 Z M1.5,3 L14.5,3 C14.7758576,3 15,3.22414237 15,3.5 L15,14.5 C15,14.7758576 14.7758576,15 14.5,15 L1.5,15 C1.22414237,15 1,14.7758576 1,14.5 L1,3.5 C1,3.22414237 1.22414237,3 1.5,3 Z" id="Path"></path>
            <path d="M15.5,5 C15.7761424,5 16,5.22385763 16,5.5 C16,5.74545989 15.8231248,5.94960837 15.5898756,5.99194433 L15.5,6 L0.5,6 C0.223857625,6 0,5.77614237 0,5.5 C0,5.25454011 0.176875161,5.05039163 0.410124368,5.00805567 L0.5,5 L15.5,5 Z" id="Path"></path>
            <path d="M4.5,0 C4.74545989,0 4.94960837,0.176875161 4.99194433,0.410124368 L5,0.5 L5,2.5 C5,2.77614237 4.77614237,3 4.5,3 C4.25454011,3 4.05039163,2.82312484 4.00805567,2.58987563 L4,2.5 L4,0.5 C4,0.223857625 4.22385763,0 4.5,0 Z" id="Path"></path>
            <path d="M11.5,0 C11.7454599,0 11.9496084,0.176875161 11.9919443,0.410124368 L12,0.5 L12,2.5 C12,2.77614237 11.7761424,3 11.5,3 C11.2545401,3 11.0503916,2.82312484 11.0080557,2.58987563 L11,2.5 L11,0.5 C11,0.223857625 11.2238576,0 11.5,0 Z" id="Path"></path>
            <path d="M5.5,7 C5.74545989,7 5.94960837,7.17687516 5.99194433,7.41012437 L6,7.5 L6,13.5 C6,13.7761424 5.77614237,14 5.5,14 C5.25454011,14 5.05039163,13.8231248 5.00805567,13.5898756 L5,13.5 L5,7.5 C5,7.22385763 5.22385763,7 5.5,7 Z" id="Path"></path>
            <path d="M10.5,7 C10.7454599,7 10.9496084,7.17687516 10.9919443,7.41012437 L11,7.5 L11,13.5 C11,13.7761424 10.7761424,14 10.5,14 C10.2545401,14 10.0503916,13.8231248 10.0080557,13.5898756 L10,13.5 L10,7.5 C10,7.22385763 10.2238576,7 10.5,7 Z" id="Path"></path>
            <path d="M13.5,10 C13.7761424,10 14,10.2238576 14,10.5 C14,10.7454599 13.8231248,10.9496084 13.5898756,10.9919443 L13.5,11 L2.5,11 C2.22385763,11 2,10.7761424 2,10.5 C2,10.2545401 2.17687516,10.0503916 2.41012437,10.0080557 L2.5,10 L13.5,10 Z" id="Path"></path>
        </g>
        <g id="logo_twitter" transform="translate(0.000000, 2.000000)">
            <mask id="mask-4" fill="white">
                <use xlink:href="#path-3"></use>
            </mask>
            <use id="Mask" fill="#322A1D" xlink:href="#path-3"></use>
        </g>
        <g id="facebook" transform="translate(2.000000, 2.000000)">
            <mask id="mask-6" fill="white">
                <use xlink:href="#path-5"></use>
            </mask>
            <use id="Mask" fill="#322A1D" xlink:href="#path-5"></use>
        </g>
        <g id="logo/youtube" transform="translate(4.000000, 2.000000)">
            <mask id="mask-8" fill="white">
                <use xlink:href="#path-7"></use>
            </mask>
            <use id="Mask" fill="#322A1D" xlink:href="#path-7"></use>
        </g>
        <g id="logo/instagram" transform="translate(2.000000, 2.000000)">
            <mask id="mask-10" fill="white">
                <use xlink:href="#path-9"></use>
            </mask>
            <use id="Mask" fill="#322A1D" xlink:href="#path-9"></use>
        </g>
        <g id="logo/reddit" transform="translate(0.000000, 2.000000)">
            <mask id="mask-12" fill="white">
                <use xlink:href="#path-11"></use>
            </mask>
            <use id="Mask" fill="#322A1D" xlink:href="#path-11"></use>
        </g>
        <g id="lock" transform="translate(4.000000, 0.000000)" fill="#322A1D" fill-rule="nonzero">
            <path d="M8,-0.4 C10.8200437,-0.4 13.1330625,1.87273243 13.1985732,4.67771419 L13.2,4.8 L13.2,9.6 L12.4,9.6 L12.4,4.8 C12.4,2.3809139 10.4190861,0.4 8,0.4 C5.61931209,0.4 3.66299655,2.31852684 3.60149112,4.68514279 L3.6,4.8 L3.6,9.6 L2.8,9.6 L2.8,4.8 C2.8,1.9390861 5.1390861,-0.4 8,-0.4 Z" id="Path"></path>
            <path d="M8,7.6 C3.3608081,7.6 -0.4,11.3608081 -0.4,16 C-0.4,20.6391919 3.3608081,24.4 8,24.4 C12.6391919,24.4 16.4,20.6391919 16.4,16 C16.4,11.3608081 12.6391919,7.6 8,7.6 Z M8,8.4 C12.1973641,8.4 15.6,11.8026359 15.6,16 C15.6,20.1973641 12.1973641,23.6 8,23.6 C3.8026359,23.6 0.4,20.1973641 0.4,16 C0.4,11.8026359 3.8026359,8.4 8,8.4 Z" id="Oval"></path>
            <polygon id="Path" points="8.6 16.4 8.6 19.6 7.6 19.6 7.6 16.4"></polygon>
            <path d="M8,11.6 C6.4536027,11.6 5.2,12.8536027 5.2,14.4 C5.2,15.9463973 6.4536027,17.2 8,17.2 C9.5463973,17.2 10.8,15.9463973 10.8,14.4 C10.8,12.8536027 9.5463973,11.6 8,11.6 Z M8,12.4 C9.1045695,12.4 10,13.2954305 10,14.4 C10,15.5045695 9.1045695,16.4 8,16.4 C6.8954305,16.4 6,15.5045695 6,14.4 C6,13.2954305 6.8954305,12.4 8,12.4 Z" id="Oval"></path>
        </g>
        <g id="family" transform="translate(0.000000, 1.000000)" fill="#322A1D" fill-rule="nonzero">
            <polygon id="Path" points="-0.225710697 4.95798192 12 -0.599159304 24.2257107 4.95798192 23.7742893 5.95110899 12 0.598909091 0.225710697 5.95110899"></polygon>
            <path d="M4.90909091,16.9090909 C3.11907757,16.9090909 1.634725,17.4979788 0.465935757,18.4258972 C-0.177155662,18.9358883 -0.545454545,19.7178576 -0.545454545,20.5483636 L-0.545454545,22.3636364 L10.3636364,22.3636364 L10.3636364,20.5483636 C10.3636364,19.7178576 9.99533748,18.9358883 9.35201437,18.4257134 C8.18345681,17.4979788 6.69910424,16.9090909 4.90909091,16.9090909 Z M4.90909091,18 C6.43480092,18 7.68710898,18.4968288 8.67393576,19.2802846 L8.75276628,19.3472363 C9.083564,19.6478899 9.27272727,20.0827761 9.27272727,20.5483636 L9.27272727,21.2727273 L0.545454545,21.2727273 L0.545454545,20.5483636 C0.545454545,20.0469617 0.76483917,19.581166 1.14401437,19.2804684 C2.13107284,18.4968288 3.3833809,18 4.90909091,18 Z" id="Path"></path>
            <path d="M4.90909091,8.18181818 C3.10184468,8.18181818 1.63636364,9.64729923 1.63636364,11.4545455 C1.63636364,13.3406674 3.15018348,15.2727273 4.90909091,15.2727273 C6.66799834,15.2727273 8.18181818,13.3406674 8.18181818,11.4545455 C8.18181818,9.64729923 6.71633714,8.18181818 4.90909091,8.18181818 Z M4.90909091,9.27272727 C6.11384468,9.27272727 7.09090909,10.2497917 7.09090909,11.4545455 C7.09090909,12.7884633 5.99917883,14.1818182 4.90909091,14.1818182 C3.81900299,14.1818182 2.72727273,12.7884633 2.72727273,11.4545455 C2.72727273,10.2497917 3.70433714,9.27272727 4.90909091,9.27272727 Z" id="Path"></path>
            <path d="M19.0909091,16.9090909 C17.3008958,16.9090909 15.8165432,17.4979788 14.6477539,18.4258972 C14.0046625,18.9358883 13.6363636,19.7178576 13.6363636,20.5483636 L13.6363636,22.3636364 L24.5454545,22.3636364 L24.5454545,20.5483636 C24.5454545,19.7178576 24.1771557,18.9358883 23.5338326,18.4257134 C22.365275,17.4979788 20.8809224,16.9090909 19.0909091,16.9090909 Z M19.0909091,18 C20.6166191,18 21.8689272,18.4968288 22.8557539,19.2802846 L22.9345845,19.3472363 C23.2653822,19.6478899 23.4545455,20.0827761 23.4545455,20.5483636 L23.4545455,21.2727273 L14.7272727,21.2727273 L14.7272727,20.5483636 C14.7272727,20.0469617 14.9466574,19.581166 15.3258326,19.2804684 C16.312891,18.4968288 17.5651991,18 19.0909091,18 Z" id="Path"></path>
            <path d="M19.0909091,8.18181818 C17.2836629,8.18181818 15.8181818,9.64729923 15.8181818,11.4545455 C15.8181818,13.3406674 17.3320017,15.2727273 19.0909091,15.2727273 C20.8498165,15.2727273 22.3636364,13.3406674 22.3636364,11.4545455 C22.3636364,9.64729923 20.8981553,8.18181818 19.0909091,8.18181818 Z M19.0909091,9.27272727 C20.2956629,9.27272727 21.2727273,10.2497917 21.2727273,11.4545455 C21.2727273,12.7884633 20.180997,14.1818182 19.0909091,14.1818182 C18.0008212,14.1818182 16.9090909,12.7884633 16.9090909,11.4545455 C16.9090909,10.2497917 17.8861553,9.27272727 19.0909091,9.27272727 Z" id="Path"></path>
        </g>
        <g id="pantone" transform="translate(3.000000, 0.000000)" fill="#322A1D" fill-rule="nonzero">
            <polygon id="Path" points="13.4655 5.73421737 13.9905 5.13058263 18.1679162 8.76381268 10.3994848 17.484859 9.80211517 16.952741 17.032 8.836"></polygon>
            <polygon id="Path" points="9.48234551 2.1543054 9.71765449 1.3896946 14.8999618 2.98454967 9.98230482 18.9636564 9.21769518 18.7283436 13.9 3.5136"></polygon>
            <path d="M10,-0.4 L-0.4,-0.4 L-0.4,24.4 L10,24.4 L10,-0.4 Z M9.2,0.4 L9.2,23.6 L0.4,23.6 L0.4,0.4 L9.2,0.4 Z" id="Rectangle"></path>
            <path d="M4.8,18.4 C3.9163444,18.4 3.2,19.1163444 3.2,20 C3.2,20.8836556 3.9163444,21.6 4.8,21.6 C5.6836556,21.6 6.4,20.8836556 6.4,20 C6.4,19.1163444 5.6836556,18.4 4.8,18.4 Z M4.8,19.2 C5.2418278,19.2 5.6,19.5581722 5.6,20 C5.6,20.4418278 5.2418278,20.8 4.8,20.8 C4.3581722,20.8 4,20.4418278 4,20 C4,19.5581722 4.3581722,19.2 4.8,19.2 Z" id="Oval"></path>
            <polygon id="Path" points="10 15.6 10 16.6 -0.4 16.6 -0.4 15.6"></polygon>
        </g>
        <g id="fullscreen" transform="translate(2.000000, 2.000000)" fill="#322A1D" fill-rule="nonzero">
            <polygon id="Path" points="6.29289322 12.2928932 7.70710678 13.7071068 0.707106781 20.7071068 -0.707106781 19.2928932"></polygon>
            <polygon id="Path" points="19.2928932 -0.707106781 20.7071068 0.707106781 13.7071068 7.70710678 12.2928932 6.29289322"></polygon>
            <polygon id="Path" points="13.7071068 12.2928932 20.7071068 19.2928932 19.2928932 20.7071068 12.2928932 13.7071068"></polygon>
            <polygon id="Path" points="0.707106781 -0.707106781 7.70710678 6.29289322 6.29289322 7.70710678 -0.707106781 0.707106781"></polygon>
            <polygon id="Path" points="21 -1 21 7 19 7 19 1 13 1 13 -1"></polygon>
            <polygon id="Path" points="1 13 1 19 7 19 7 21 -1 21 -1 13"></polygon>
            <polygon id="Path" points="7 -1 7 1 1 1 1 7 -1 7 -1 -1"></polygon>
            <polygon id="Path" points="21 13 21 21 13 21 13 19 19 19 19 13"></polygon>
        </g>
    </g>
</svg>