<?xml version="1.0" encoding="UTF-8"?>
<svg width="16px" height="16px" viewBox="0 0 16 16" version="1.1" xmlns="http://www.w3.org/2000/svg" xmlns:xlink="http://www.w3.org/1999/xlink">
    <!-- Generator: Sketch 58 (84663) - https://sketch.com -->
    <title>sprite</title>
    <desc>Created with Sketch.</desc>
    <g id="sprite" stroke="none" stroke-width="1" fill="none" fill-rule="evenodd" stroke-linecap="round" stroke-linejoin="round">
        <g id="pin" transform="translate(2.000000, 0.000000)" stroke="#98948E">
            <g id="pin-e">
                <path d="M11.5,6 C11.5,10.5 6,15.5 6,15.5 C6,15.5 0.5,10.5 0.5,6 C0.5,2.96243388 2.96243388,0.5 6,0.5 C9.03756612,0.5 11.5,2.96243388 11.5,6 Z" id="Path"></path>
                <circle id="Oval" cx="6" cy="6" r="2.5"></circle>
            </g>
        </g>
        <g id="user" stroke="#98948E">
            <g id="single-01">
                <path d="M13.4999993,12.976 C13.5003736,12.6495138 13.3413453,12.343403 13.074,12.156 C11.2699472,10.98771 9.14737758,10.409018 6.99999934,10.5 C4.85262242,10.409018 2.73005284,10.98771 0.926,12.156 C0.658654713,12.343403 0.49962642,12.6495138 0.499999343,12.976 L0.499999343,15.5 L13.4999993,15.5 L13.4999993,12.976 Z" id="Path"></path>
                <circle id="Oval" cx="7" cy="4" r="3.5"></circle>
            </g>
        </g>
    </g>
</svg>
