<?xml version="1.0" encoding="UTF-8"?>
<svg width="95px" height="32px" viewBox="0 0 95 32" version="1.1" xmlns="http://www.w3.org/2000/svg" xmlns:xlink="http://www.w3.org/1999/xlink">
    <!-- Generator: Sketch 60.1 (88133) - https://sketch.com -->
    <title>stars</title>
    <desc>Created with Sketch.</desc>
    <defs>
        <path d="M5.01612576,4.44280659 L7.08018087,0.26126958 C7.25213513,-0.08708986 7.7488893,-0.08708986 7.92084356,0.26126958 L9.98489867,4.44280659 L14.5991687,5.11330936 C14.9836565,5.16917955 15.1371703,5.64168603 14.8589393,5.91286849 L11.5197882,9.16742777 L12.3078339,13.7639158 C12.3734842,14.1468392 11.971555,14.4388253 11.6276795,14.2580216 L7.50051221,12.088031 L3.37334494,14.2580216 C3.02946938,14.4388253 2.62754018,14.1468392 2.69319056,13.7639158 L3.48123625,9.16742777 L0.142085142,5.91286849 C-0.136145833,5.64168603 0.0173678898,5.16917955 0.40185576,5.11330936 L5.01612576,4.44280659 Z" id="path-1"></path>
        <path d="M5.35053414,4.7389937 L7.55219293,0.278687552 C7.7356108,-0.0928958506 8.26548192,-0.0928958506 8.44889979,0.278687552 L10.6505586,4.7389937 L15.5724466,5.45419665 C15.982567,5.51379152 16.1463149,6.01779843 15.8495352,6.30705972 L12.2877741,9.77858962 L13.1283561,14.6815101 C13.1983832,15.0899618 12.7696587,15.4014136 12.4028581,15.2085564 L8.00054636,12.8938997 L3.5982346,15.2085564 C3.231434,15.4014136 2.80270952,15.0899618 2.8727366,14.6815101 L3.71331867,9.77858962 L0.151557485,6.30705972 C-0.145222222,6.01779843 0.0185257491,5.51379152 0.428646144,5.45419665 L5.35053414,4.7389937 Z" id="path-3"></path>
        <path d="M5.35053414,4.7389937 L7.55219293,0.278687552 C7.7356108,-0.0928958506 8.26548192,-0.0928958506 8.44889979,0.278687552 L10.6505586,4.7389937 L15.5724466,5.45419665 C15.982567,5.51379152 16.1463149,6.01779843 15.8495352,6.30705972 L12.2877741,9.77858962 L13.1283561,14.6815101 C13.1983832,15.0899618 12.7696587,15.4014136 12.4028581,15.2085564 L8.00054636,12.8938997 L3.5982346,15.2085564 C3.231434,15.4014136 2.80270952,15.0899618 2.8727366,14.6815101 L3.71331867,9.77858962 L0.151557485,6.30705972 C-0.145222222,6.01779843 0.0185257491,5.51379152 0.428646144,5.45419665 L5.35053414,4.7389937 Z" id="path-5"></path>
        <path d="M5.35053414,4.7389937 L7.55219293,0.278687552 C7.7356108,-0.0928958506 8.26548192,-0.0928958506 8.44889979,0.278687552 L10.6505586,4.7389937 L15.5724466,5.45419665 C15.982567,5.51379152 16.1463149,6.01779843 15.8495352,6.30705972 L12.2877741,9.77858962 L13.1283561,14.6815101 C13.1983832,15.0899618 12.7696587,15.4014136 12.4028581,15.2085564 L8.00054636,12.8938997 L3.5982346,15.2085564 C3.231434,15.4014136 2.80270952,15.0899618 2.8727366,14.6815101 L3.71331867,9.77858962 L0.151557485,6.30705972 C-0.145222222,6.01779843 0.0185257491,5.51379152 0.428646144,5.45419665 L5.35053414,4.7389937 Z" id="path-7"></path>
        <path d="M5.35053414,4.7389937 L7.55219293,0.278687552 C7.7356108,-0.0928958506 8.26548192,-0.0928958506 8.44889979,0.278687552 L10.6505586,4.7389937 L15.5724466,5.45419665 C15.982567,5.51379152 16.1463149,6.01779843 15.8495352,6.30705972 L12.2877741,9.77858962 L13.1283561,14.6815101 C13.1983832,15.0899618 12.7696587,15.4014136 12.4028581,15.2085564 L8.00054636,12.8938997 L3.5982346,15.2085564 C3.231434,15.4014136 2.80270952,15.0899618 2.8727366,14.6815101 L3.71331867,9.77858962 L0.151557485,6.30705972 C-0.145222222,6.01779843 0.0185257491,5.51379152 0.428646144,5.45419665 L5.35053414,4.7389937 Z" id="path-9"></path>
        <path d="M5.01612576,4.44280659 L7.08018087,0.26126958 C7.25213513,-0.08708986 7.7488893,-0.08708986 7.92084356,0.26126958 L9.98489867,4.44280659 L14.5991687,5.11330936 C14.9836565,5.16917955 15.1371703,5.64168603 14.8589393,5.91286849 L11.5197882,9.16742777 L12.3078339,13.7639158 C12.3734842,14.1468392 11.971555,14.4388253 11.6276795,14.2580216 L7.50051221,12.088031 L3.37334494,14.2580216 C3.02946938,14.4388253 2.62754018,14.1468392 2.69319056,13.7639158 L3.48123625,9.16742777 L0.142085142,5.91286849 C-0.136145833,5.64168603 0.0173678898,5.16917955 0.40185576,5.11330936 L5.01612576,4.44280659 Z M7.50051221,1.52777312 L5.74771856,5.07873042 C5.67943536,5.21706429 5.54745908,5.31294423 5.39479367,5.33512814 L1.47664204,5.90447746 L4.31206428,8.66806901 C4.422545,8.77575088 4.47296604,8.93090088 4.44689637,9.08295924 L3.77769899,12.9862325 L7.28236699,11.1435409 C7.41893398,11.0717364 7.58209045,11.0717364 7.71865744,11.1435409 L11.2233254,12.9862325 L10.5541281,9.08295924 C10.5280584,8.93090088 10.5784794,8.77575088 10.6889601,8.66806901 L13.5243824,5.90447746 L9.60623076,5.33512814 C9.45356535,5.31294423 9.32158907,5.21706429 9.25330587,5.07873042 L7.50051221,1.52777312 Z" id="path-11"></path>
        <path d="M5.35053414,4.7389937 L7.55219293,0.278687552 C7.7356108,-0.0928958506 8.26548192,-0.0928958506 8.44889979,0.278687552 L10.6505586,4.7389937 L15.5724466,5.45419665 C15.982567,5.51379152 16.1463149,6.01779843 15.8495352,6.30705972 L12.2877741,9.77858962 L13.1283561,14.6815101 C13.1983832,15.0899618 12.7696587,15.4014136 12.4028581,15.2085564 L8.00054636,12.8938997 L3.5982346,15.2085564 C3.231434,15.4014136 2.80270952,15.0899618 2.8727366,14.6815101 L3.71331867,9.77858962 L0.151557485,6.30705972 C-0.145222222,6.01779843 0.0185257491,5.51379152 0.428646144,5.45419665 L5.35053414,4.7389937 Z M8.00054636,1.62962466 L6.13089979,5.41731245 C6.05806438,5.56486857 5.91728968,5.66714051 5.75444658,5.69080335 L1.57508484,6.29810929 L4.59953524,9.24594028 C4.71738133,9.36080094 4.77116378,9.52629427 4.74335613,9.68848986 L4.02954559,13.8519814 L7.76785812,11.8864436 C7.91352958,11.8098521 8.08756315,11.8098521 8.2332346,11.8864436 L11.9715471,13.8519814 L11.2577366,9.68848986 C11.2299289,9.52629427 11.2837114,9.36080094 11.4015575,9.24594028 L14.4260079,6.29810929 L10.2466461,5.69080335 C10.083803,5.66714051 9.94302834,5.56486857 9.87019293,5.41731245 L8.00054636,1.62962466 Z" id="path-13"></path>
        <path d="M5.35053414,4.7389937 L7.55219293,0.278687552 C7.7356108,-0.0928958506 8.26548192,-0.0928958506 8.44889979,0.278687552 L10.6505586,4.7389937 L15.5724466,5.45419665 C15.982567,5.51379152 16.1463149,6.01779843 15.8495352,6.30705972 L12.2877741,9.77858962 L13.1283561,14.6815101 C13.1983832,15.0899618 12.7696587,15.4014136 12.4028581,15.2085564 L8.00054636,12.8938997 L3.5982346,15.2085564 C3.231434,15.4014136 2.80270952,15.0899618 2.8727366,14.6815101 L3.71331867,9.77858962 L0.151557485,6.30705972 C-0.145222222,6.01779843 0.0185257491,5.51379152 0.428646144,5.45419665 L5.35053414,4.7389937 Z M8.00054636,1.62962466 L6.13089979,5.41731245 C6.05806438,5.56486857 5.91728968,5.66714051 5.75444658,5.69080335 L1.57508484,6.29810929 L4.59953524,9.24594028 C4.71738133,9.36080094 4.77116378,9.52629427 4.74335613,9.68848986 L4.02954559,13.8519814 L7.76785812,11.8864436 C7.91352958,11.8098521 8.08756315,11.8098521 8.2332346,11.8864436 L11.9715471,13.8519814 L11.2577366,9.68848986 C11.2299289,9.52629427 11.2837114,9.36080094 11.4015575,9.24594028 L14.4260079,6.29810929 L10.2466461,5.69080335 C10.083803,5.66714051 9.94302834,5.56486857 9.87019293,5.41731245 L8.00054636,1.62962466 Z" id="path-15"></path>
        <path d="M5.35053414,4.7389937 L7.55219293,0.278687552 C7.7356108,-0.0928958506 8.26548192,-0.0928958506 8.44889979,0.278687552 L10.6505586,4.7389937 L15.5724466,5.45419665 C15.982567,5.51379152 16.1463149,6.01779843 15.8495352,6.30705972 L12.2877741,9.77858962 L13.1283561,14.6815101 C13.1983832,15.0899618 12.7696587,15.4014136 12.4028581,15.2085564 L8.00054636,12.8938997 L3.5982346,15.2085564 C3.231434,15.4014136 2.80270952,15.0899618 2.8727366,14.6815101 L3.71331867,9.77858962 L0.151557485,6.30705972 C-0.145222222,6.01779843 0.0185257491,5.51379152 0.428646144,5.45419665 L5.35053414,4.7389937 Z M8.00054636,1.62962466 L6.13089979,5.41731245 C6.05806438,5.56486857 5.91728968,5.66714051 5.75444658,5.69080335 L1.57508484,6.29810929 L4.59953524,9.24594028 C4.71738133,9.36080094 4.77116378,9.52629427 4.74335613,9.68848986 L4.02954559,13.8519814 L7.76785812,11.8864436 C7.91352958,11.8098521 8.08756315,11.8098521 8.2332346,11.8864436 L11.9715471,13.8519814 L11.2577366,9.68848986 C11.2299289,9.52629427 11.2837114,9.36080094 11.4015575,9.24594028 L14.4260079,6.29810929 L10.2466461,5.69080335 C10.083803,5.66714051 9.94302834,5.56486857 9.87019293,5.41731245 L8.00054636,1.62962466 Z" id="path-17"></path>
        <path d="M5.35053414,4.7389937 L7.55219293,0.278687552 C7.7356108,-0.0928958506 8.26548192,-0.0928958506 8.44889979,0.278687552 L10.6505586,4.7389937 L15.5724466,5.45419665 C15.982567,5.51379152 16.1463149,6.01779843 15.8495352,6.30705972 L12.2877741,9.77858962 L13.1283561,14.6815101 C13.1983832,15.0899618 12.7696587,15.4014136 12.4028581,15.2085564 L8.00054636,12.8938997 L3.5982346,15.2085564 C3.231434,15.4014136 2.80270952,15.0899618 2.8727366,14.6815101 L3.71331867,9.77858962 L0.151557485,6.30705972 C-0.145222222,6.01779843 0.0185257491,5.51379152 0.428646144,5.45419665 L5.35053414,4.7389937 Z M8.00054636,1.62962466 L6.13089979,5.41731245 C6.05806438,5.56486857 5.91728968,5.66714051 5.75444658,5.69080335 L1.57508484,6.29810929 L4.59953524,9.24594028 C4.71738133,9.36080094 4.77116378,9.52629427 4.74335613,9.68848986 L4.02954559,13.8519814 L7.76785812,11.8864436 C7.91352958,11.8098521 8.08756315,11.8098521 8.2332346,11.8864436 L11.9715471,13.8519814 L11.2577366,9.68848986 C11.2299289,9.52629427 11.2837114,9.36080094 11.4015575,9.24594028 L14.4260079,6.29810929 L10.2466461,5.69080335 C10.083803,5.66714051 9.94302834,5.56486857 9.87019293,5.41731245 L8.00054636,1.62962466 Z" id="path-19"></path>
    </defs>
    <g id="stars" stroke="none" stroke-width="1" fill="none" fill-rule="evenodd">
        <g id="icons/star-full">
            <g transform="translate(80.000000, 1.000000)">
                <g id="Color/grey-dark" transform="translate(-0.000512, 0.000000)">
                    <mask id="mask-2" fill="white">
                        <use xlink:href="#path-1"></use>
                    </mask>
                    <use id="Mask" fill="#98948E" fill-rule="nonzero" xlink:href="#path-1"></use>
                    <g mask="url(#mask-2)" fill="#98948E" id="Rectangle-6">
                        <g transform="translate(0.000512, 0.000000)">
                            <rect x="0" y="0" width="15" height="15"></rect>
                        </g>
                    </g>
                </g>
            </g>
            <g>
                <g id="Color/grey-dark" transform="translate(-0.000546, 0.000000)">
                    <mask id="mask-4" fill="white">
                        <use xlink:href="#path-3"></use>
                    </mask>
                    <use id="Mask" fill="#98948E" fill-rule="nonzero" xlink:href="#path-3"></use>
                    <g mask="url(#mask-4)" fill="#98948E" id="Rectangle-6">
                        <g transform="translate(0.000546, 0.000000)">
                            <rect x="0" y="0" width="16" height="16"></rect>
                        </g>
                    </g>
                </g>
            </g>
            <g transform="translate(20.000000, 0.000000)">
                <g id="Color/grey-dark" transform="translate(-0.000546, 0.000000)">
                    <mask id="mask-6" fill="white">
                        <use xlink:href="#path-5"></use>
                    </mask>
                    <use id="Mask" fill="#98948E" fill-rule="nonzero" xlink:href="#path-5"></use>
                    <g mask="url(#mask-6)" fill="#98948E" id="Rectangle-6">
                        <g transform="translate(0.000546, 0.000000)">
                            <rect x="0" y="0" width="16" height="16"></rect>
                        </g>
                    </g>
                </g>
            </g>
            <g transform="translate(40.000000, 0.000000)">
                <g id="Color/grey-dark" transform="translate(-0.000546, 0.000000)">
                    <mask id="mask-8" fill="white">
                        <use xlink:href="#path-7"></use>
                    </mask>
                    <use id="Mask" fill="#98948E" fill-rule="nonzero" xlink:href="#path-7"></use>
                    <g mask="url(#mask-8)" fill="#98948E" id="Rectangle-6">
                        <g transform="translate(0.000546, 0.000000)">
                            <rect x="0" y="0" width="16" height="16"></rect>
                        </g>
                    </g>
                </g>
            </g>
            <g transform="translate(60.000000, 0.000000)">
                <g id="Color/grey-dark" transform="translate(-0.000546, 0.000000)">
                    <mask id="mask-10" fill="white">
                        <use xlink:href="#path-9"></use>
                    </mask>
                    <use id="Mask" fill="#98948E" fill-rule="nonzero" xlink:href="#path-9"></use>
                    <g mask="url(#mask-10)" fill="#98948E" id="Rectangle-6">
                        <g transform="translate(0.000546, 0.000000)">
                            <rect x="0" y="0" width="16" height="16"></rect>
                        </g>
                    </g>
                </g>
            </g>
        </g>
        <g transform="translate(0.000000, 16.000000)" id="icons/star-bordered">
            <g transform="translate(80.000000, 1.000000)">
                <g id="Color/grey-dark" transform="translate(0.000000, -0.000000)">
                    <mask id="mask-12" fill="white">
                        <use xlink:href="#path-11"></use>
                    </mask>
                    <use id="Mask" fill="#98948E" fill-rule="nonzero" xlink:href="#path-11"></use>
                    <g mask="url(#mask-12)" fill="#98948E" id="Rectangle-6">
                        <rect x="0" y="0" width="15" height="15"></rect>
                    </g>
                </g>
            </g>
            <g>
                <g id="Color/grey-dark" transform="translate(0.000000, -0.000000)">
                    <mask id="mask-14" fill="white">
                        <use xlink:href="#path-13"></use>
                    </mask>
                    <use id="Mask" fill="#98948E" fill-rule="nonzero" xlink:href="#path-13"></use>
                    <g mask="url(#mask-14)" fill="#98948E" id="Rectangle-6">
                        <rect x="0" y="0" width="16" height="16"></rect>
                    </g>
                </g>
            </g>
            <g transform="translate(20.000000, 0.000000)">
                <g id="Color/grey-dark" transform="translate(0.000000, -0.000000)">
                    <mask id="mask-16" fill="white">
                        <use xlink:href="#path-15"></use>
                    </mask>
                    <use id="Mask" fill="#98948E" fill-rule="nonzero" xlink:href="#path-15"></use>
                    <g mask="url(#mask-16)" fill="#98948E" id="Rectangle-6">
                        <rect x="0" y="0" width="16" height="16"></rect>
                    </g>
                </g>
            </g>
            <g transform="translate(40.000000, 0.000000)">
                <g id="Color/grey-dark" transform="translate(0.000000, -0.000000)">
                    <mask id="mask-18" fill="white">
                        <use xlink:href="#path-17"></use>
                    </mask>
                    <use id="Mask" fill="#98948E" fill-rule="nonzero" xlink:href="#path-17"></use>
                    <g mask="url(#mask-18)" fill="#98948E" id="Rectangle-6">
                        <rect x="0" y="0" width="16" height="16"></rect>
                    </g>
                </g>
            </g>
            <g transform="translate(60.000000, 0.000000)">
                <g id="Color/grey-dark" transform="translate(0.000000, -0.000000)">
                    <mask id="mask-20" fill="white">
                        <use xlink:href="#path-19"></use>
                    </mask>
                    <use id="Mask" fill="#98948E" fill-rule="nonzero" xlink:href="#path-19"></use>
                    <g mask="url(#mask-20)" fill="#98948E" id="Rectangle-6">
                        <rect x="0" y="0" width="16" height="16"></rect>
                    </g>
                </g>
            </g>
        </g>
    </g>
</svg>